<?xml version="1.0" encoding="UTF-8" standalone="no"?>
<!DOCTYPE svg PUBLIC "-//W3C//DTD SVG 1.1//EN"
 "http://www.w3.org/Graphics/SVG/1.1/DTD/svg11.dtd">
<!-- Generated by graphviz version 2.47.0 (20210316.0004)
 -->
<!-- Title: dependencies Pages: 1 -->
<svg width="504pt" height="284pt"
 viewBox="0.00 0.00 504.00 284.00" xmlns="http://www.w3.org/2000/svg" xmlns:xlink="http://www.w3.org/1999/xlink">
<g id="graph0" class="graph" transform="scale(1 1) rotate(0) translate(4 280)">
<title>dependencies</title>
<polygon fill="white" stroke="transparent" points="-4,4 -4,-280 500,-280 500,4 -4,4"/>
<text text-anchor="start" x="227.01" y="-42.4" font-family="Times-12" font-weight="bold" font-size="14.00">Legend</text>
<polygon fill="#ffffb3" stroke="transparent" points="14,-10 14,-30 34,-30 34,-10 14,-10"/>
<text text-anchor="start" x="37.63" y="-15.4" font-family="Times-12" font-size="14.00"> &#160;Declarations</text>
<polygon fill="#8dd3c7" stroke="transparent" points="127,-10 127,-30 147,-30 147,-10 127,-10"/>
<text text-anchor="start" x="150.73" y="-15.4" font-family="Times-12" font-size="14.00"> &#160;Module</text>
<polygon fill="#80b1d3" stroke="transparent" points="213,-10 213,-30 233,-30 233,-10 213,-10"/>
<text text-anchor="start" x="236.78" y="-15.4" font-family="Times-12" font-size="14.00"> &#160;Bootstrap</text>
<polygon fill="#fdb462" stroke="transparent" points="310,-10 310,-30 330,-30 330,-10 310,-10"/>
<text text-anchor="start" x="333.67" y="-15.4" font-family="Times-12" font-size="14.00"> &#160;Providers</text>
<polygon fill="#fb8072" stroke="transparent" points="406,-10 406,-30 426,-30 426,-10 406,-10"/>
<text text-anchor="start" x="429.73" y="-15.4" font-family="Times-12" font-size="14.00"> &#160;Exports</text>
<g id="clust1" class="cluster">
<title>cluster_ArtistsModule</title>
<polygon fill="none" stroke="black" stroke-dasharray="1,5" points="52,-70 52,-268 444,-268 444,-70 52,-70"/>
</g>
<g id="clust4" class="cluster">
<title>cluster_ArtistsModule_exports</title>
<polygon fill="none" stroke="black" points="171,-208 171,-260 285,-260 285,-208 171,-208"/>
</g>
<g id="clust6" class="cluster">
<title>cluster_ArtistsModule_providers</title>
<polygon fill="none" stroke="black" points="288,-78 288,-130 436,-130 436,-78 288,-78"/>
</g>
<g id="clust3" class="cluster">
<title>cluster_ArtistsModule_imports</title>
<polygon fill="none" stroke="black" points="60,-78 60,-130 280,-130 280,-78 60,-78"/>
</g>
<!-- AuthModule -->
<g id="node1" class="node">
<title>AuthModule</title>
<polygon fill="#8dd3c7" stroke="black" points="271.55,-122 268.55,-126 247.55,-126 244.55,-122 184.45,-122 184.45,-86 271.55,-86 271.55,-122"/>
<text text-anchor="middle" x="228" y="-99.8" font-family="Times,serif" font-size="14.00">AuthModule</text>
</g>
<!-- ArtistsModule -->
<g id="node3" class="node">
<title>ArtistsModule</title>
<polygon fill="#8dd3c7" stroke="black" points="276.38,-187 273.38,-191 252.38,-191 249.38,-187 179.62,-187 179.62,-151 276.38,-151 276.38,-187"/>
<text text-anchor="middle" x="228" y="-164.8" font-family="Times,serif" font-size="14.00">ArtistsModule</text>
</g>
<!-- AuthModule&#45;&gt;ArtistsModule -->
<g id="edge1" class="edge">
<title>AuthModule&#45;&gt;ArtistsModule</title>
<path fill="none" stroke="black" d="M228,-122.11C228,-122.11 228,-140.99 228,-140.99"/>
<polygon fill="black" stroke="black" points="224.5,-140.99 228,-150.99 231.5,-140.99 224.5,-140.99"/>
</g>
<!-- PrismaModule -->
<g id="node2" class="node">
<title>PrismaModule</title>
<polygon fill="#8dd3c7" stroke="black" points="166.43,-122 163.43,-126 142.43,-126 139.43,-122 67.57,-122 67.57,-86 166.43,-86 166.43,-122"/>
<text text-anchor="middle" x="117" y="-99.8" font-family="Times,serif" font-size="14.00">PrismaModule</text>
</g>
<!-- PrismaModule&#45;&gt;ArtistsModule -->
<g id="edge2" class="edge">
<title>PrismaModule&#45;&gt;ArtistsModule</title>
<path fill="none" stroke="black" d="M117,-122.11C117,-141.34 117,-169 117,-169 117,-169 169.31,-169 169.31,-169"/>
<polygon fill="black" stroke="black" points="169.31,-172.5 179.31,-169 169.31,-165.5 169.31,-172.5"/>
</g>
<!-- ArtistsService  -->
<g id="node4" class="node">
<title>ArtistsService </title>
<polygon fill="#fb8072" stroke="black" points="277.31,-252 178.69,-252 178.69,-216 277.31,-216 277.31,-252"/>
<text text-anchor="middle" x="228" y="-229.8" font-family="Times,serif" font-size="14.00">ArtistsService </text>
</g>
<!-- ArtistsModule&#45;&gt;ArtistsService  -->
<g id="edge3" class="edge">
<title>ArtistsModule&#45;&gt;ArtistsService </title>
<path fill="none" stroke="black" stroke-dasharray="5,2" d="M228,-187.11C228,-187.11 228,-205.99 228,-205.99"/>
<polygon fill="black" stroke="black" points="224.5,-205.99 228,-215.99 231.5,-205.99 224.5,-205.99"/>
</g>
<!-- ArtistsService -->
<g id="node5" class="node">
<title>ArtistsService</title>
<ellipse fill="#fdb462" stroke="black" cx="362" cy="-104" rx="65.98" ry="18"/>
<text text-anchor="middle" x="362" y="-99.8" font-family="Times,serif" font-size="14.00">ArtistsService</text>
</g>
<!-- ArtistsService&#45;&gt;ArtistsModule -->
<g id="edge4" class="edge">
<title>ArtistsService&#45;&gt;ArtistsModule</title>
<path fill="none" stroke="black" d="M362,-122.11C362,-141.34 362,-169 362,-169 362,-169 286.76,-169 286.76,-169"/>
<polygon fill="black" stroke="black" points="286.76,-165.5 276.76,-169 286.76,-172.5 286.76,-165.5"/>
</g>
</g>
</svg>
