<?xml version="1.0" encoding="UTF-8" standalone="no"?>
<!DOCTYPE svg PUBLIC "-//W3C//DTD SVG 1.1//EN"
 "http://www.w3.org/Graphics/SVG/1.1/DTD/svg11.dtd">
<!-- Generated by graphviz version 2.47.0 (20210316.0004)
 -->
<!-- Title: dependencies Pages: 1 -->
<svg width="504pt" height="284pt"
 viewBox="0.00 0.00 504.00 284.00" xmlns="http://www.w3.org/2000/svg" xmlns:xlink="http://www.w3.org/1999/xlink">
<g id="graph0" class="graph" transform="scale(1 1) rotate(0) translate(4 280)">
<title>dependencies</title>
<polygon fill="white" stroke="transparent" points="-4,4 -4,-280 500,-280 500,4 -4,4"/>
<text text-anchor="start" x="227.01" y="-42.4" font-family="Times-12" font-weight="bold" font-size="14.00">Legend</text>
<polygon fill="#ffffb3" stroke="transparent" points="14,-10 14,-30 34,-30 34,-10 14,-10"/>
<text text-anchor="start" x="37.63" y="-15.4" font-family="Times-12" font-size="14.00"> &#160;Declarations</text>
<polygon fill="#8dd3c7" stroke="transparent" points="127,-10 127,-30 147,-30 147,-10 127,-10"/>
<text text-anchor="start" x="150.73" y="-15.4" font-family="Times-12" font-size="14.00"> &#160;Module</text>
<polygon fill="#80b1d3" stroke="transparent" points="213,-10 213,-30 233,-30 233,-10 213,-10"/>
<text text-anchor="start" x="236.78" y="-15.4" font-family="Times-12" font-size="14.00"> &#160;Bootstrap</text>
<polygon fill="#fdb462" stroke="transparent" points="310,-10 310,-30 330,-30 330,-10 310,-10"/>
<text text-anchor="start" x="333.67" y="-15.4" font-family="Times-12" font-size="14.00"> &#160;Providers</text>
<polygon fill="#fb8072" stroke="transparent" points="406,-10 406,-30 426,-30 426,-10 406,-10"/>
<text text-anchor="start" x="429.73" y="-15.4" font-family="Times-12" font-size="14.00"> &#160;Exports</text>
<g id="clust1" class="cluster">
<title>cluster_AlbumsModule</title>
<polygon fill="none" stroke="black" stroke-dasharray="1,5" points="47,-70 47,-268 449,-268 449,-70 47,-70"/>
</g>
<g id="clust3" class="cluster">
<title>cluster_AlbumsModule_imports</title>
<polygon fill="none" stroke="black" points="221,-78 221,-130 441,-130 441,-78 221,-78"/>
</g>
<g id="clust4" class="cluster">
<title>cluster_AlbumsModule_exports</title>
<polygon fill="none" stroke="black" points="217,-208 217,-260 339,-260 339,-208 217,-208"/>
</g>
<g id="clust6" class="cluster">
<title>cluster_AlbumsModule_providers</title>
<polygon fill="none" stroke="black" points="55,-78 55,-130 213,-130 213,-78 55,-78"/>
</g>
<!-- AuthModule -->
<g id="node1" class="node">
<title>AuthModule</title>
<polygon fill="#8dd3c7" stroke="black" points="432.55,-122 429.55,-126 408.55,-126 405.55,-122 345.45,-122 345.45,-86 432.55,-86 432.55,-122"/>
<text text-anchor="middle" x="389" y="-99.8" font-family="Times,serif" font-size="14.00">AuthModule</text>
</g>
<!-- AlbumsModule -->
<g id="node3" class="node">
<title>AlbumsModule</title>
<polygon fill="#8dd3c7" stroke="black" points="329.88,-187 326.88,-191 305.88,-191 302.88,-187 226.12,-187 226.12,-151 329.88,-151 329.88,-187"/>
<text text-anchor="middle" x="278" y="-164.8" font-family="Times,serif" font-size="14.00">AlbumsModule</text>
</g>
<!-- AuthModule&#45;&gt;AlbumsModule -->
<g id="edge1" class="edge">
<title>AuthModule&#45;&gt;AlbumsModule</title>
<path fill="none" stroke="black" d="M389,-122.11C389,-141.34 389,-169 389,-169 389,-169 339.93,-169 339.93,-169"/>
<polygon fill="black" stroke="black" points="339.93,-165.5 329.93,-169 339.93,-172.5 339.93,-165.5"/>
</g>
<!-- PrismaModule -->
<g id="node2" class="node">
<title>PrismaModule</title>
<polygon fill="#8dd3c7" stroke="black" points="327.43,-122 324.43,-126 303.43,-126 300.43,-122 228.57,-122 228.57,-86 327.43,-86 327.43,-122"/>
<text text-anchor="middle" x="278" y="-99.8" font-family="Times,serif" font-size="14.00">PrismaModule</text>
</g>
<!-- PrismaModule&#45;&gt;AlbumsModule -->
<g id="edge2" class="edge">
<title>PrismaModule&#45;&gt;AlbumsModule</title>
<path fill="none" stroke="black" d="M278,-122.11C278,-122.11 278,-140.99 278,-140.99"/>
<polygon fill="black" stroke="black" points="274.5,-140.99 278,-150.99 281.5,-140.99 274.5,-140.99"/>
</g>
<!-- AlbumsService  -->
<g id="node4" class="node">
<title>AlbumsService </title>
<polygon fill="#fb8072" stroke="black" points="330.81,-252 225.19,-252 225.19,-216 330.81,-216 330.81,-252"/>
<text text-anchor="middle" x="278" y="-229.8" font-family="Times,serif" font-size="14.00">AlbumsService </text>
</g>
<!-- AlbumsModule&#45;&gt;AlbumsService  -->
<g id="edge3" class="edge">
<title>AlbumsModule&#45;&gt;AlbumsService </title>
<path fill="none" stroke="black" stroke-dasharray="5,2" d="M278,-187.11C278,-187.11 278,-205.99 278,-205.99"/>
<polygon fill="black" stroke="black" points="274.5,-205.99 278,-215.99 281.5,-205.99 274.5,-205.99"/>
</g>
<!-- AlbumsService -->
<g id="node5" class="node">
<title>AlbumsService</title>
<ellipse fill="#fdb462" stroke="black" cx="134" cy="-104" rx="70.64" ry="18"/>
<text text-anchor="middle" x="134" y="-99.8" font-family="Times,serif" font-size="14.00">AlbumsService</text>
</g>
<!-- AlbumsService&#45;&gt;AlbumsModule -->
<g id="edge4" class="edge">
<title>AlbumsService&#45;&gt;AlbumsModule</title>
<path fill="none" stroke="black" d="M134,-122.11C134,-141.34 134,-169 134,-169 134,-169 216.01,-169 216.01,-169"/>
<polygon fill="black" stroke="black" points="216.01,-172.5 226.01,-169 216.01,-165.5 216.01,-172.5"/>
</g>
</g>
</svg>
