<svg width="16" height="17" viewBox="0 0 16 17" fill="none" xmlns="http://www.w3.org/2000/svg">
<g opacity="0.7">
<path d="M4.96512 1.43551C4.82476 1.57604 4.74592 1.76654 4.74592 1.96516C4.74592 2.16378 4.82476 2.35428 4.96512 2.49482L11.4309 8.96061L4.96512 15.4264C4.89148 15.495 4.83241 15.5778 4.79145 15.6697C4.75048 15.7616 4.72845 15.8609 4.72668 15.9615C4.7249 16.0622 4.74342 16.1621 4.78111 16.2555C4.81881 16.3488 4.87492 16.4336 4.94609 16.5047C5.01726 16.5759 5.10204 16.632 5.19537 16.6697C5.2887 16.7074 5.38866 16.7259 5.4893 16.7242C5.58993 16.7224 5.68918 16.7004 5.78112 16.6594C5.87306 16.6184 5.95581 16.5594 6.02443 16.4857L13.5495 8.96061L6.02443 1.43551C5.88389 1.29515 5.69339 1.21631 5.49477 1.21631C5.29615 1.21631 5.10565 1.29515 4.96512 1.43551Z" fill="white"/>
</g>
</svg>
