<svg width="16" height="16" viewBox="0 0 16 16" fill="none" xmlns="http://www.w3.org/2000/svg">
<g opacity="0.7">
<path d="M11.0228 0.469197C11.1631 0.609731 11.242 0.800231 11.242 0.998853C11.242 1.19747 11.1631 1.38797 11.0228 1.52851L4.55698 7.9943L11.0228 14.4601C11.0964 14.5287 11.1555 14.6115 11.1964 14.7034C11.2374 14.7953 11.2594 14.8946 11.2612 14.9952C11.263 15.0959 11.2445 15.1958 11.2068 15.2892C11.1691 15.3825 11.113 15.4673 11.0418 15.5384C10.9706 15.6096 10.8858 15.6657 10.7925 15.7034C10.6992 15.7411 10.5992 15.7596 10.4986 15.7578C10.398 15.7561 10.2987 15.734 10.2068 15.6931C10.1148 15.6521 10.0321 15.593 9.96346 15.5194L2.43835 7.9943L9.96346 0.469197C10.104 0.328838 10.2945 0.25 10.4931 0.25C10.6917 0.25 10.8822 0.328838 11.0228 0.469197Z" fill="white"/>
</g>
</svg>
