<svg width="147" height="36" viewBox="0 0 147 36" fill="none" xmlns="http://www.w3.org/2000/svg">
<path d="M18.7134 0.0148171C28.6464 0.407817 36.3789 8.78082 35.9844 18.7138C35.5899 28.6468 27.2184 36.3793 17.2854 35.9848C7.35245 35.5903 -0.380052 27.2203 0.0144482 17.2858C0.408948 7.35132 8.78045 -0.379683 18.7134 0.0148171ZM31.2984 16.3318C31.4027 16.1315 31.4665 15.9126 31.4861 15.6876C31.5058 15.4626 31.4809 15.236 31.4129 15.0206C31.345 14.8053 31.2352 14.6054 31.09 14.4325C30.9447 14.2596 30.7668 14.117 30.5664 14.0128C26.9752 12.1454 23.0913 10.9051 19.0824 10.3453C15.0742 9.77831 10.9987 9.90006 7.03145 10.7053C6.58469 10.796 6.19226 11.0605 5.9405 11.4405C5.68873 11.8206 5.59824 12.2851 5.68895 12.7318C5.77965 13.1786 6.04411 13.571 6.42416 13.8228C6.8042 14.0745 7.26869 14.165 7.71545 14.0743C11.2996 13.3474 14.9816 13.2384 18.6024 13.7518C22.2249 14.2566 25.7344 15.3767 28.9794 17.0638C29.3841 17.274 29.8556 17.315 30.2904 17.1777C30.7252 17.0405 31.0878 16.7362 31.2984 16.3318ZM28.6779 21.6583C28.8538 21.332 28.893 20.9493 28.787 20.5941C28.681 20.2389 28.4384 19.9403 28.1124 19.7638C25.0343 18.0979 21.6822 16.998 18.2154 16.5163C14.7499 16.0234 11.224 16.1565 7.80545 16.9093C7.62611 16.9486 7.45628 17.0228 7.3057 17.1279C7.15512 17.2329 7.02675 17.3666 6.92795 17.5213C6.8282 17.6755 6.76023 17.8481 6.72803 18.0289C6.69584 18.2097 6.70006 18.3952 6.74045 18.5743C6.7797 18.7537 6.85396 18.9235 6.95898 19.0741C7.06401 19.2246 7.19771 19.353 7.35245 19.4518C7.50666 19.5516 7.67923 19.6195 7.86004 19.6517C8.04086 19.6839 8.22628 19.6797 8.40545 19.6393C11.499 18.9594 14.6893 18.8385 17.8254 19.2823C20.9634 19.7203 23.9964 20.7163 26.7834 22.2223C26.9448 22.31 27.1219 22.365 27.3045 22.3842C27.4872 22.4033 27.6718 22.3862 27.8478 22.3338C28.0238 22.2814 28.1878 22.1947 28.3302 22.0788C28.4727 21.9629 28.5909 21.82 28.6779 21.6583ZM26.3109 26.3833C26.3809 26.2606 26.426 26.1253 26.4436 25.9852C26.4613 25.845 26.4511 25.7028 26.4138 25.5666C26.3765 25.4303 26.3127 25.3028 26.226 25.1912C26.1394 25.0797 26.0317 24.9862 25.9089 24.9163C23.2939 23.4273 20.4192 22.4498 17.4384 22.0363C14.4593 21.6128 11.4268 21.7604 8.50295 22.4713C8.22606 22.5385 7.98722 22.713 7.83898 22.9563C7.69073 23.1997 7.64522 23.4919 7.71245 23.7688C7.77968 24.0457 7.95415 24.2845 8.19748 24.4328C8.44081 24.581 8.73306 24.6265 9.00995 24.5593C11.6705 23.9138 14.4294 23.7799 17.1399 24.1648C19.8519 24.5428 22.4664 25.4308 24.8454 26.7853C25.0934 26.9249 25.3864 26.9609 25.6609 26.8857C25.9353 26.8104 26.1689 26.6299 26.3109 26.3833Z" fill="white"/>
<path d="M49.2044 8.52302C50.1974 8.52302 51.0644 8.87852 51.4214 9.13352L51.7514 11.1975C51.1997 10.7828 50.5319 10.5514 49.8419 10.536C48.5939 10.536 47.9819 11.4015 47.9819 12.8025V14.4075H51.5489V16.3185H47.9819V27.021H45.6119V16.32H43.4219V14.409H45.6119V12.675C45.6119 10.203 46.9619 8.52002 49.2044 8.52002M57.9959 14.001C61.8944 14.001 64.6709 16.9815 64.6709 20.727C64.6709 24.474 61.8959 27.429 57.9959 27.429C54.0959 27.429 51.3209 24.4725 51.3209 20.727C51.3209 16.9815 54.0959 14.001 57.9959 14.001ZM57.9959 16.0395C55.4474 16.0395 53.6909 18.0525 53.6909 20.727C53.6909 23.3775 55.4474 25.3905 57.9959 25.3905C60.5444 25.3905 62.3024 23.3775 62.3024 20.727C62.3024 18.0525 60.5444 16.0395 57.9959 16.0395ZM66.3539 14.409H68.6729V17.949C69.2579 15.8865 70.3289 14.154 72.1379 14.154C72.6989 14.154 73.1054 14.2815 73.3094 14.409L73.6154 16.752C73.3604 16.5735 72.8009 16.3965 72.1634 16.3965C70.1504 16.3965 69.0539 18.6375 68.7239 20.778V27.021H66.3539V14.409ZM85.8209 8.93102L92.9804 27.021H90.3059L88.4714 22.1535H79.9859L78.1259 27.021H75.6284L82.7894 8.93102H85.8209ZM84.2414 11.019L80.7764 20.0895H87.6809L84.2414 11.019ZM135.076 22.9185C136.045 24.2175 138.007 25.3395 139.995 25.3395C141.651 25.3395 142.618 24.5745 142.618 23.607C142.618 22.842 142.287 22.332 140.046 21.7725L138.924 21.492C136.681 20.931 135.178 19.911 135.178 17.8215C135.178 15.81 137.038 14.0265 139.969 14.0265C141.802 14.0265 143.409 14.688 144.121 15.3255V17.823C143.562 17.058 141.981 16.0905 140.095 16.0905C138.363 16.0905 137.497 16.854 137.497 17.7465C137.497 18.561 137.931 18.9435 140.172 19.5045L141.294 19.7835C143.536 20.3445 144.861 21.4665 144.861 23.5035C144.861 25.467 143.154 27.4035 140.02 27.4035C137.905 27.4035 136.02 26.46 135.076 25.5945V22.9185ZM116.043 22.9185C117.01 24.2175 118.972 25.3395 120.96 25.3395C122.616 25.3395 123.585 24.5745 123.585 23.607C123.585 22.842 123.253 22.332 121.011 21.7725L119.889 21.492C117.648 20.931 116.143 19.911 116.143 17.8215C116.143 15.81 118.003 14.0265 120.934 14.0265C122.769 14.0265 124.374 14.688 125.088 15.3255V17.823C124.527 17.058 122.947 16.0905 121.062 16.0905C119.329 16.0905 118.462 16.854 118.462 17.7465C118.462 18.561 118.896 18.9435 121.138 19.5045L122.259 19.7835C124.501 20.3445 125.826 21.4665 125.826 23.5035C125.826 25.467 124.119 27.4035 120.985 27.4035C118.87 27.4035 116.985 26.46 116.043 25.5945V22.9185ZM104.32 16.32L101.823 16.3185V15.249L106.639 11.274H106.665V14.409H110.206V16.32H106.665V23.1225C106.665 24.7785 107.479 25.3395 108.627 25.3395C109.349 25.337 110.045 25.0745 110.589 24.6L110.155 26.6895C109.747 27.021 108.958 27.3525 107.989 27.3525C105.9 27.3525 104.32 26.205 104.32 23.3775V16.32ZM128.325 23.3775V16.3185H125.827V15.249L130.642 11.274H130.668V14.409H134.209V16.32H130.668V23.1225C130.668 24.7785 131.484 25.3395 132.63 25.3395C133.471 25.3395 134.158 24.9825 134.592 24.6L134.158 26.6895C133.752 27.0195 132.961 27.3525 131.994 27.3525C129.904 27.3525 128.325 26.205 128.325 23.3775ZM94.0259 14.409H96.3449V17.949C96.9314 15.8865 98.0009 14.154 99.8099 14.154C100.371 14.154 100.779 14.2815 100.983 14.409L101.287 16.752C101.034 16.5735 100.473 16.3965 99.8354 16.3965C97.8224 16.3965 96.7274 18.6375 96.3959 20.778V27.021H94.0259V14.409ZM111.838 14.409H114.207V27.021H111.838V14.409ZM111.456 10.2045C111.456 9.36452 112.092 8.72702 113.01 8.72702C113.902 8.72702 114.564 9.36302 114.564 10.2045C114.564 11.07 113.902 11.682 113.01 11.682C112.092 11.682 111.456 11.07 111.456 10.2045Z" fill="white"/>
</svg>
