<svg width="35" height="35" viewBox="0 0 35 35" fill="none" xmlns="http://www.w3.org/2000/svg">
<path d="M16.0109 18.9539C16.1513 19.0944 16.2301 19.2849 16.2301 19.4836C16.2301 19.6822 16.1513 19.8727 16.0109 20.0132L13.2927 22.7315H14.31C14.5088 22.7315 14.6995 22.8104 14.84 22.951C14.9806 23.0915 15.0596 23.2822 15.0596 23.481C15.0596 23.6798 14.9806 23.8704 14.84 24.011C14.6995 24.1515 14.5088 24.2305 14.31 24.2305H10.7344V20.6538C10.7344 20.455 10.8133 20.2644 10.9539 20.1238C11.0945 19.9833 11.2851 19.9043 11.4839 19.9043C11.6827 19.9043 11.8733 19.9833 12.0139 20.1238C12.1544 20.2644 12.2334 20.455 12.2334 20.6538V21.6711L14.9516 18.9529C15.0922 18.8126 15.2827 18.7337 15.4813 18.7337C15.6799 18.7337 15.8704 18.8126 16.0109 18.9529V18.9539ZM18.949 16.0158C18.8087 15.8753 18.7298 15.6848 18.7298 15.4862C18.7298 15.2875 18.8087 15.097 18.949 14.9565L21.6673 12.2383H20.6499C20.5515 12.2383 20.454 12.2189 20.3631 12.1812C20.2722 12.1436 20.1895 12.0884 20.1199 12.0188C20.0503 11.9492 19.9951 11.8665 19.9575 11.7756C19.9198 11.6847 19.9004 11.5872 19.9004 11.4888C19.9004 11.3903 19.9198 11.2929 19.9575 11.2019C19.9951 11.111 20.0503 11.0284 20.1199 10.9588C20.1895 10.8892 20.2722 10.834 20.3631 10.7963C20.454 10.7586 20.5515 10.7393 20.6499 10.7393H24.2256V14.3159C24.2256 14.5147 24.1466 14.7054 24.0061 14.8459C23.8655 14.9865 23.6749 15.0654 23.4761 15.0654C23.2773 15.0654 23.0867 14.9865 22.9461 14.8459C22.8055 14.7054 22.7266 14.5147 22.7266 14.3159V13.2976L20.0083 16.0158C19.8678 16.1562 19.6773 16.235 19.4787 16.235C19.2801 16.235 19.0896 16.1562 18.949 16.0158Z" fill="#B3B3B3"/>
</svg>
