<svg width="25" height="24" viewBox="0 0 25 24" fill="none" xmlns="http://www.w3.org/2000/svg">
<path d="M12.7222 5.97716C14.1437 5.95331 15.5173 6.49084 16.5452 7.47316L19.4132 4.60516C17.6032 2.90494 15.2053 1.97137 12.7222 2.00016C10.868 1.99939 9.05027 2.51431 7.47201 3.48736C5.89376 4.46042 4.61724 5.85325 3.78516 7.51016L7.12616 10.1002C7.51039 8.91391 8.257 7.87805 9.26088 7.13842C10.2648 6.39878 11.4753 5.99264 12.7222 5.97716Z" fill="#EB4132"/>
<path d="M3.78482 7.50977C3.08572 8.90326 2.72168 10.4407 2.72168 11.9998C2.72168 13.5588 3.08572 15.0963 3.78482 16.4898L7.12582 13.8998C6.70772 12.6676 6.70772 11.3319 7.12582 10.0998L3.78482 7.50977Z" fill="#FBBD01"/>
<path d="M16.1081 17.0679C15.335 17.5642 14.4587 17.8773 13.5462 17.9835C12.6336 18.0896 11.7088 17.986 10.8424 17.6804C9.97602 17.3748 9.19085 16.8754 8.5468 16.2202C7.90275 15.565 7.41684 14.7714 7.12613 13.8999L3.78613 16.4899C4.61807 18.1465 5.89427 19.5391 7.47214 20.5122C9.05 21.4852 10.8674 22.0003 12.7211 21.9999C15.1554 22.0658 17.5229 21.199 19.3391 19.5769L16.1081 17.0679Z" fill="#31AA52"/>
<path d="M22.1397 10.1821H12.7217V14.0501H18.1037C17.9923 14.662 17.758 15.2449 17.4149 15.7636C17.0718 16.2824 16.6271 16.7261 16.1077 17.0681L19.3397 19.5781C20.3239 18.6303 21.0979 17.4861 21.6116 16.22C22.1253 14.9538 22.3672 13.5938 22.3217 12.2281C22.3217 11.5411 22.2617 10.8571 22.1397 10.1821Z" fill="#4086F4"/>
</svg>
