<svg width="24" height="24" viewBox="0 0 24 24" fill="none" xmlns="http://www.w3.org/2000/svg">
<path d="M13.5 1.51459C13.0439 1.25129 12.5266 1.11267 12 1.11267C11.4734 1.11267 10.9561 1.25129 10.5 1.51459L3 5.84459C2.69597 6.02013 2.4435 6.2726 2.26796 6.57662C2.09243 6.88065 2.00001 7.22553 2 7.5766V20.9996C2 21.2648 2.10536 21.5192 2.29289 21.7067C2.48043 21.8942 2.73478 21.9996 3 21.9996H9C9.26522 21.9996 9.51957 21.8942 9.70711 21.7067C9.89464 21.5192 10 21.2648 10 20.9996V14.9996H14V20.9996C14 21.2648 14.1054 21.5192 14.2929 21.7067C14.4804 21.8942 14.7348 21.9996 15 21.9996H21C21.2652 21.9996 21.5196 21.8942 21.7071 21.7067C21.8946 21.5192 22 21.2648 22 20.9996V7.5766C22 7.22553 21.9076 6.88065 21.732 6.57662C21.5565 6.2726 21.304 6.02013 21 5.84459L13.5 1.51459Z" stroke="var(--fg-color, currentColor)"
    fill="none"/>
</svg>
