<svg width="17" height="16" viewBox="0 0 17 16" fill="none" xmlns="http://www.w3.org/2000/svg">
<path d="M5.91856 8.745C6.05918 8.60455 6.24981 8.52566 6.44856 8.52566C6.64731 8.52566 6.83793 8.60455 6.97856 8.745L8.17356 9.939V4C8.17356 3.80109 8.25258 3.61032 8.39323 3.46967C8.53388 3.32902 8.72465 3.25 8.92356 3.25C9.12247 3.25 9.31324 3.32902 9.45389 3.46967C9.59454 3.61032 9.67356 3.80109 9.67356 4V9.94L10.8686 8.745C10.9372 8.67131 11.02 8.61221 11.112 8.57122C11.204 8.53023 11.3033 8.50819 11.404 8.50641C11.5047 8.50463 11.6048 8.52316 11.6982 8.56088C11.7915 8.5986 11.8764 8.65474 11.9476 8.72596C12.0188 8.79718 12.075 8.88201 12.1127 8.9754C12.1504 9.06879 12.1689 9.16882 12.1672 9.26952C12.1654 9.37023 12.1433 9.46954 12.1023 9.56154C12.0613 9.65354 12.0022 9.73634 11.9286 9.805L8.92356 12.811L8.39556 12.283L8.39056 12.278L5.91856 9.805C5.77811 9.66437 5.69922 9.47375 5.69922 9.275C5.69922 9.07625 5.77811 8.88563 5.91856 8.745Z" fill="#B3B3B3"/>
<path d="M0.921875 8C0.921875 5.87827 1.76473 3.84344 3.26502 2.34315C4.76531 0.842855 6.80014 0 8.92188 0C11.0436 0 13.0784 0.842855 14.5787 2.34315C16.079 3.84344 16.9219 5.87827 16.9219 8C16.9219 10.1217 16.079 12.1566 14.5787 13.6569C13.0784 15.1571 11.0436 16 8.92188 16C6.80014 16 4.76531 15.1571 3.26502 13.6569C1.76473 12.1566 0.921875 10.1217 0.921875 8ZM8.92188 1.5C7.19797 1.5 5.54467 2.18482 4.32568 3.40381C3.10669 4.62279 2.42188 6.27609 2.42188 8C2.42188 9.72391 3.10669 11.3772 4.32568 12.5962C5.54467 13.8152 7.19797 14.5 8.92188 14.5C10.6458 14.5 12.2991 13.8152 13.5181 12.5962C14.7371 11.3772 15.4219 9.72391 15.4219 8C15.4219 6.27609 14.7371 4.62279 13.5181 3.40381C12.2991 2.18482 10.6458 1.5 8.92188 1.5Z" fill="#B3B3B3"/>
</svg>
