<svg width="56" height="56" viewBox="0 0 56 56" fill="none" xmlns="http://www.w3.org/2000/svg">
<path d="M28 12.6401C23.8284 12.6401 23.3054 12.6578 21.6671 12.7326C20.0322 12.8072 18.9156 13.0668 17.9386 13.4465C16.9285 13.8391 16.0719 14.3643 15.218 15.2182C14.3641 16.0721 13.8389 16.9287 13.4464 17.9387C13.0666 18.9157 12.807 20.0323 12.7324 21.6672C12.6576 23.3055 12.64 23.8286 12.64 28.0001C12.64 32.1716 12.6576 32.6947 12.7324 34.333C12.807 35.9679 13.0666 37.0844 13.4464 38.0614C13.8389 39.0715 14.3641 39.9281 15.218 40.782C16.0719 41.6359 16.9285 42.1611 17.9386 42.5537C18.9156 42.9333 20.0322 43.193 21.6671 43.2676C23.3054 43.3423 23.8284 43.36 28 43.36C32.1715 43.36 32.6945 43.3423 34.3328 43.2676C35.9677 43.193 37.0843 42.9333 38.0613 42.5537C39.0714 42.1611 39.9279 41.6359 40.7819 40.782C41.6358 39.9281 42.161 39.0715 42.5536 38.0614C42.9332 37.0844 43.1929 35.9679 43.2675 34.333C43.3422 32.6947 43.3599 32.1716 43.3599 28.0001C43.3599 23.8286 43.3422 23.3055 43.2675 21.6672C43.1929 20.0323 42.9332 18.9157 42.5536 17.9387C42.161 16.9287 41.6358 16.0721 40.7819 15.2182C39.9279 14.3643 39.0714 13.8391 38.0613 13.4465C37.0843 13.0668 35.9677 12.8072 34.3328 12.7326C32.6945 12.6578 32.1715 12.6401 28 12.6401ZM28 15.4078C32.1012 15.4078 32.5871 15.4234 34.2067 15.4973C35.7043 15.5656 36.5176 15.8158 37.0588 16.0261C37.7758 16.3048 38.2875 16.6377 38.8249 17.1751C39.3624 17.7126 39.6953 18.2243 39.9739 18.9412C40.1843 19.4825 40.4345 20.2958 40.5028 21.7933C40.5767 23.413 40.5924 23.8988 40.5924 28.0001C40.5924 32.1014 40.5767 32.5872 40.5028 34.2068C40.4345 35.7044 40.1843 36.5177 39.9739 37.0589C39.6953 37.7759 39.3624 38.2876 38.8249 38.825C38.2875 39.3626 37.7758 39.6954 37.0588 39.974C36.5176 40.1844 35.7043 40.4346 34.2067 40.5029C32.5873 40.5768 32.1015 40.5925 28 40.5925C23.8984 40.5925 23.4127 40.5768 21.7932 40.5029C20.2956 40.4346 19.4823 40.1844 18.9411 39.974C18.2241 39.6954 17.7125 39.3626 17.1749 38.825C16.6375 38.2876 16.3046 37.7759 16.026 37.0589C15.8156 36.5177 15.5654 35.7044 15.4971 34.2068C15.4232 32.5872 15.4076 32.1014 15.4076 28.0001C15.4076 23.8988 15.4232 23.413 15.4971 21.7933C15.5654 20.2958 15.8156 19.4825 16.026 18.9412C16.3046 18.2243 16.6375 17.7126 17.1749 17.1751C17.7125 16.6377 18.2241 16.3048 18.9411 16.0261C19.4823 15.8158 20.2956 15.5656 21.7932 15.4973C23.4129 15.4234 23.8987 15.4078 28 15.4078Z"  stroke="var(--fg-color, currentColor)"
    stroke-width="1.25"
    fill="none" />
<path d="M28 33.1201C25.1723 33.1201 22.88 30.8278 22.88 28.0001C22.88 25.1724 25.1723 22.8801 28 22.8801C30.8277 22.8801 33.1199 25.1724 33.1199 28.0001C33.1199 30.8278 30.8277 33.1201 28 33.1201ZM28 20.1125C23.6438 20.1125 20.1124 23.6439 20.1124 28.0001C20.1124 32.3563 23.6438 35.8876 28 35.8876C32.3562 35.8876 35.8875 32.3563 35.8875 28.0001C35.8875 23.6439 32.3562 20.1125 28 20.1125Z"  stroke="var(--fg-color, currentColor)"
    stroke-width="1.25"
    fill="none"/>
<path d="M38.0424 19.8009C38.0424 20.8189 37.2171 21.6441 36.1991 21.6441C35.1812 21.6441 34.356 20.8189 34.356 19.8009C34.356 18.783 35.1812 17.9578 36.1991 17.9578C37.2171 17.9578 38.0424 18.783 38.0424 19.8009Z"  stroke="var(--fg-color, currentColor)"
    stroke-width="1.25"
    fill="none"/>
</svg>
