<svg width="17" height="17" viewBox="0 0 17 17" fill="none" xmlns="http://www.w3.org/2000/svg">
<path d="M4.4013 10.0282C4.38031 9.56347 4.42728 9.09877 4.54021 8.64806H2.22271C2.36562 8.34526 2.59747 8.09242 2.88728 7.92453L3.80868 7.39288C4.01464 7.27413 4.19211 7.11173 4.32863 6.91709C4.46514 6.72246 4.5574 6.50029 4.59893 6.26621C4.64045 6.03212 4.63023 5.79178 4.56898 5.56206C4.50773 5.33235 4.39695 5.11882 4.2444 4.93648C3.96956 4.63985 3.80269 4.25928 3.77071 3.85618C3.76138 3.66497 3.78037 3.47742 3.82767 3.29354C3.8752 3.13851 3.95586 2.99566 4.06405 2.87487C4.17224 2.75409 4.30538 2.65825 4.45426 2.594C4.60334 2.53022 4.76381 2.49734 4.92595 2.49734C5.0881 2.49734 5.24857 2.53022 5.39765 2.594C5.54755 2.66062 5.67813 2.75423 5.78939 2.87482C5.89732 2.99474 5.97727 3.13765 6.02624 3.29155C6.07554 3.47543 6.09453 3.6623 6.0832 3.85218C6.0516 4.25646 5.88432 4.63821 5.60851 4.93548C5.38718 5.19694 5.25568 5.52258 5.23337 5.86442C5.21106 6.20626 5.29912 6.54623 5.48459 6.83424C5.84436 6.44649 6.27608 6.1327 6.75576 5.90784V5.89285C7.23545 5.34721 7.52326 4.66066 7.57623 3.93613C7.59933 3.554 7.55364 3.17084 7.44132 2.80486C7.26479 2.27664 6.92663 1.81729 6.47469 1.49181C6.02274 1.16634 5.4799 0.991211 4.92296 0.991211C4.36601 0.991211 3.82317 1.16634 3.37123 1.49181C2.91928 1.81729 2.58112 2.27664 2.40459 2.80486C2.29367 3.17162 2.2477 3.55437 2.26968 3.93713C2.32265 4.66066 2.61046 5.34621 3.09015 5.89086C3.10225 5.90541 3.11102 5.92243 3.11585 5.94073C3.12069 5.95902 3.12146 5.97816 3.11813 5.99679C3.11497 6.01564 3.1077 6.03357 3.09681 6.04929C3.08593 6.06501 3.07171 6.07814 3.05517 6.08773L2.13377 6.61938C1.65035 6.90222 1.24969 7.30706 0.971883 7.7934C0.694078 8.27973 0.548874 8.8305 0.5508 9.39058V10.1401H4.41429C4.41529 10.1071 4.40429 10.0691 4.4013 10.0282ZM14.9624 6.63037L14.041 6.09872C14.0243 6.08924 14.0099 6.07616 13.9988 6.06044C13.9878 6.04471 13.9803 6.02673 13.9771 6.00778C13.9739 5.99009 13.9748 5.97193 13.9797 5.95463C13.9845 5.93733 13.9932 5.92134 14.005 5.90784C14.4847 5.3622 14.7725 4.67565 14.8255 3.95112C14.8469 3.56806 14.8012 3.18422 14.6906 2.81685C14.5741 2.46648 14.3854 2.14446 14.1367 1.87161C13.8879 1.59876 13.5847 1.38116 13.2465 1.23288C12.7365 1.00877 12.1691 0.94994 11.6239 1.06464C11.0787 1.17935 10.583 1.46183 10.2065 1.87247C9.95786 2.14615 9.76926 2.46887 9.65288 2.81985C9.54295 3.18661 9.49698 3.56936 9.51897 3.95212C9.57193 4.67565 9.85975 5.3612 10.3394 5.90584C10.3444 5.91184 10.3394 5.91684 10.3394 5.92383C10.8191 6.14869 11.2498 6.46348 11.6106 6.85023C11.7976 6.56141 11.8864 6.21998 11.8639 5.87665C11.8414 5.53332 11.7088 5.20641 11.4857 4.94447C11.2109 4.64785 11.044 4.26728 11.012 3.86417C11.002 3.67296 11.021 3.48542 11.069 3.30154C11.1165 3.14651 11.1971 3.00366 11.3053 2.88287C11.4135 2.76208 11.5467 2.66625 11.6956 2.60199C11.8446 2.53822 12.0051 2.50533 12.1672 2.50533C12.3294 2.50533 12.4899 2.53822 12.6389 2.60199C12.7888 2.66862 12.9194 2.76222 13.0307 2.88281C13.1386 3.00407 13.2172 3.14164 13.2665 3.29554C13.3165 3.47942 13.3365 3.6703 13.3245 3.86018C13.2929 4.26446 13.1256 4.6462 12.8498 4.94347C12.6982 5.12612 12.5883 5.33964 12.5277 5.56914C12.4671 5.79864 12.4573 6.0386 12.4989 6.27228C12.5406 6.50595 12.6328 6.72773 12.769 6.92213C12.9052 7.11654 13.0821 7.27889 13.2875 7.39787L14.2089 7.92953C14.4987 8.09842 14.7286 8.35026 14.8725 8.65306H12.555C12.6679 9.10476 12.7149 9.57046 12.6939 10.0352C12.6939 10.0751 12.6809 10.1131 12.6769 10.1521H16.5404V9.40257C16.5436 8.84203 16.3994 8.2905 16.1223 7.80325C15.8452 7.31599 15.4448 6.91014 14.9614 6.62638L14.9624 6.63037ZM11.3398 12.6265L10.4184 12.0948C10.394 12.0807 10.3748 12.059 10.3638 12.0331C10.3528 12.0071 10.3506 11.9783 10.3574 11.9509C10.3614 11.9333 10.37 11.9171 10.3824 11.9039C10.8621 11.3587 11.1502 10.6715 11.2029 9.94722C11.226 9.56509 11.1803 9.18193 11.068 8.81595C10.8917 8.28737 10.5535 7.82764 10.1015 7.50187C9.6494 7.1761 9.10631 7.0008 8.5491 7.0008C7.99188 7.0008 7.44879 7.1761 6.99673 7.50187C6.54466 7.82764 6.20654 8.28737 6.03024 8.81595C5.92031 9.18271 5.87434 9.56547 5.89632 9.94822C5.94929 10.6717 6.2371 11.3573 6.71679 11.9019C6.72889 11.9165 6.73766 11.9335 6.74249 11.9518C6.74733 11.9701 6.7481 11.9892 6.74477 12.0079C6.74162 12.0267 6.73434 12.0447 6.72345 12.0604C6.71257 12.0761 6.69835 12.0892 6.68181 12.0988L5.76041 12.6305C5.27699 12.9133 4.87633 13.3182 4.59852 13.8045C4.32072 14.2908 4.17551 14.8416 4.17744 15.4017V16.1512H12.9218V15.4017C12.9252 14.8403 12.7808 14.288 12.5031 13.8001C12.2254 13.3123 11.8242 12.9061 11.3398 12.6225V12.6265ZM5.84336 14.6482C5.98626 14.3454 6.21811 14.0925 6.50793 13.9246L7.42933 13.393C7.63528 13.2742 7.81275 13.1118 7.94927 12.9172C8.08579 12.7226 8.17805 12.5004 8.21957 12.2663C8.26109 12.0322 8.25087 11.7919 8.18963 11.5622C8.12838 11.3324 8.01759 11.1189 7.86504 10.9366C7.59021 10.64 7.42334 10.2594 7.39135 9.85628C7.38136 9.66507 7.40034 9.47752 7.44831 9.29364C7.49585 9.13861 7.5765 8.99576 7.68469 8.87497C7.79288 8.75419 7.92602 8.65835 8.07491 8.5941C8.22399 8.53032 8.38445 8.49744 8.5466 8.49744C8.70875 8.49744 8.86921 8.53032 9.01829 8.5941C9.16819 8.66072 9.29878 8.75433 9.41004 8.87491C9.51797 8.99484 9.59792 9.13774 9.64688 9.29164C9.69552 9.47552 9.71451 9.6624 9.70385 9.85228C9.67224 10.2566 9.50497 10.6383 9.22916 10.9356C9.07739 11.1182 8.96731 11.3317 8.90662 11.5612C8.84592 11.7907 8.83607 12.0307 8.87776 12.2645C8.91944 12.4982 9.01165 12.72 9.14795 12.9144C9.28425 13.1088 9.46134 13.2711 9.66687 13.39L10.5883 13.9216C10.8781 14.0905 11.1079 14.3424 11.2518 14.6452L5.84336 14.6482Z" fill="#B3B3B3"/>
</svg>
