<svg width="17" height="16" viewBox="0 0 17 16" fill="none" xmlns="http://www.w3.org/2000/svg">
<path d="M8.56909 1.49951C7.50891 1.49951 6.49216 1.92067 5.7425 2.67032C4.99284 3.41998 4.57169 4.43674 4.57169 5.49691V8.76479C4.57149 8.89563 4.53703 9.02415 4.47175 9.13754L2.82782 11.9927H14.3104L12.6664 9.13655C12.601 9.02285 12.5665 8.89397 12.5665 8.76279V5.49691C12.5665 4.43674 12.1453 3.41998 11.3957 2.67032C10.646 1.92067 9.62927 1.49951 8.56909 1.49951ZM3.07266 5.49691C3.07266 4.03917 3.65175 2.64113 4.68253 1.61035C5.71331 0.579574 7.11135 0.000488281 8.56909 0.000488281C10.0268 0.000488281 11.4249 0.579574 12.4556 1.61035C13.4864 2.64113 14.0655 4.03917 14.0655 5.49691V8.56192L16.2571 12.3684C16.3226 12.4824 16.3571 12.6116 16.3569 12.743C16.3568 12.8745 16.3221 13.0036 16.2562 13.1174C16.1904 13.2312 16.0959 13.3257 15.982 13.3914C15.8681 13.4571 15.739 13.4917 15.6075 13.4917H11.0675C11.0675 14.1543 10.8042 14.7898 10.3357 15.2583C9.86717 15.7269 9.2317 15.9901 8.56909 15.9901C7.90648 15.9901 7.27101 15.7269 6.80247 15.2583C6.33394 14.7898 6.07071 14.1543 6.07071 13.4917H1.53067C1.39921 13.4917 1.27006 13.4571 1.15619 13.3914C1.04233 13.3257 0.947741 13.2312 0.88193 13.1174C0.816119 13.0036 0.781398 12.8745 0.78125 12.743C0.781103 12.6116 0.815534 12.4824 0.88109 12.3684L3.07266 8.56392V5.49691ZM7.56974 13.4917C7.56974 13.7568 7.67503 14.0109 7.86244 14.1984C8.04986 14.3858 8.30405 14.4911 8.56909 14.4911C8.83413 14.4911 9.08832 14.3858 9.27574 14.1984C9.46315 14.0109 9.56844 13.7568 9.56844 13.4917H7.56974Z" fill="#B3B3B3"/>
</svg>
