<svg width="48" height="49" viewBox="0 0 48 49" fill="none" xmlns="http://www.w3.org/2000/svg">
<rect y="0.419922" width="48" height="48" rx="24" fill="#1ED760"/>
<path d="M19.05 16.0259L32.54 23.8139C32.6463 23.8754 32.7346 23.9637 32.7959 24.0701C32.8573 24.1765 32.8896 24.2971 32.8896 24.4199C32.8896 24.5427 32.8573 24.6634 32.7959 24.7697C32.7346 24.8761 32.6463 24.9644 32.54 25.0259L19.05 32.8139C18.9436 32.8753 18.8229 32.9077 18.7001 32.9077C18.5772 32.9077 18.4565 32.8754 18.3501 32.814C18.2437 32.7526 18.1553 32.6642 18.0939 32.5578C18.0324 32.4515 18 32.3308 18 32.2079V16.6319C18 16.5091 18.0324 16.3884 18.0939 16.282C18.1553 16.1756 18.2437 16.0873 18.3501 16.0259C18.4565 15.9644 18.5772 15.9321 18.7001 15.9321C18.8229 15.9321 18.9436 15.9645 19.05 16.0259Z" fill="black"/>
</svg>
