<svg width="13" height="14" viewBox="0 0 13 14" fill="none" xmlns="http://www.w3.org/2000/svg">
<path d="M4.37169e-07 0.700327C-0.0001369 0.577465 0.0320865 0.456734 0.0934284 0.35028C0.15477 0.243827 0.243067 0.155407 0.349434 0.0939168C0.455802 0.0324263 0.576488 3.4295e-05 0.69935 2.72175e-08C0.822212 -3.42406e-05 0.942917 0.0322904 1.04932 0.0937215L11.9322 6.37763C12.0385 6.43906 12.1267 6.52736 12.188 6.63366C12.2494 6.73996 12.2816 6.86052 12.2816 6.98324C12.2816 7.10596 12.2494 7.22653 12.188 7.33282C12.1267 7.43912 12.0385 7.52742 11.9322 7.58885L1.04932 13.8728C0.94299 13.9341 0.822377 13.9665 0.6996 13.9665C0.576822 13.9665 0.456205 13.9342 0.349867 13.8728C0.243529 13.8114 0.155217 13.7232 0.0938034 13.6168C0.0323899 13.5105 3.8632e-05 13.3899 4.37169e-07 13.2672V0.700327Z" fill="black"/>
</svg>
