<svg width="17" height="17" viewBox="0 0 17 17" fill="none" xmlns="http://www.w3.org/2000/svg">
<path d="M15.2679 8.4904C15.2679 8.68919 15.189 8.87983 15.0484 9.02039C14.9078 9.16095 14.7172 9.23992 14.5184 9.23992H8.77214V14.9862C8.77214 15.185 8.69318 15.3756 8.55262 15.5162C8.41206 15.6567 8.22141 15.7357 8.02263 15.7357C7.82385 15.7357 7.63321 15.6567 7.49265 15.5162C7.35209 15.3756 7.27312 15.185 7.27312 14.9862V9.23992H1.52686C1.32807 9.23992 1.13743 9.16095 0.996871 9.02039C0.85631 8.87983 0.777344 8.68919 0.777344 8.4904C0.777344 8.29162 0.85631 8.10098 0.996871 7.96042C1.13743 7.81986 1.32807 7.74089 1.52686 7.74089H7.27312V1.99463C7.27312 1.79585 7.35209 1.60521 7.49265 1.46464C7.63321 1.32408 7.82385 1.24512 8.02263 1.24512C8.22141 1.24512 8.41206 1.32408 8.55262 1.46464C8.69318 1.60521 8.77214 1.79585 8.77214 1.99463V7.74089H14.5184C14.7172 7.74089 14.9078 7.81986 15.0484 7.96042C15.189 8.10098 15.2679 8.29162 15.2679 8.4904Z" fill="#B3B3B3"/>
</svg>
