<svg width="24" height="25" viewBox="0 0 24 25" fill="none" xmlns="http://www.w3.org/2000/svg">
<path d="M15 16.0205C15 17.1255 13.657 18.0205 12 18.0205C10.343 18.0205 9 17.1255 9 16.0205C9 14.9155 10.343 14.0205 12 14.0205C13.657 14.0205 15 14.9155 15 16.0205Z" fill="#B3B3B3"/>
<path d="M1.51478 9.89051C1.60869 9.77475 1.72729 9.68145 1.8619 9.61743C1.99651 9.55341 2.14372 9.5203 2.29278 9.52051H21.7108C21.8598 9.52038 22.007 9.55357 22.1416 9.61765C22.2762 9.68173 22.3947 9.77509 22.4886 9.89088C22.5824 10.0067 22.6492 10.142 22.684 10.2869C22.7188 10.4318 22.7208 10.5827 22.6898 10.7285L20.3508 21.7285C20.3031 21.9526 20.18 22.1535 20.002 22.2976C19.824 22.4418 19.6019 22.5205 19.3728 22.5205H4.63178C4.40271 22.5205 4.18059 22.4418 4.00258 22.2976C3.82456 22.1535 3.70143 21.9526 3.65378 21.7285L1.31478 10.7285C1.28385 10.5828 1.28584 10.4321 1.32061 10.2873C1.35539 10.1425 1.42207 10.0073 1.51578 9.89151L1.51478 9.89051ZM3.52678 11.5205L5.43978 20.5205H18.5628L20.4758 11.5205H3.52678ZM4.00178 2.52051C4.00178 2.25529 4.10714 2.00094 4.29468 1.8134C4.48221 1.62586 4.73657 1.52051 5.00178 1.52051H19.0018C19.267 1.52051 19.5214 1.62586 19.7089 1.8134C19.8964 2.00094 20.0018 2.25529 20.0018 2.52051V6.52051H18.0018V3.52051H6.00178V6.52051H4.00178V2.52051Z" fill="#B3B3B3"/>
</svg>
