<svg width="16" height="16" viewBox="0 0 16 16" fill="none" xmlns="http://www.w3.org/2000/svg">
<path d="M5.02638 10.5235C4.95776 10.5971 4.87502 10.6562 4.78308 10.6972C4.69114 10.7381 4.59189 10.7602 4.49125 10.7619C4.39061 10.7637 4.29065 10.7452 4.19732 10.7075C4.10399 10.6698 4.01922 10.6137 3.94804 10.5425C3.87687 10.4714 3.82076 10.3866 3.78307 10.2932C3.74537 10.1999 3.72686 10.1 3.72863 9.99932C3.73041 9.89868 3.75244 9.79943 3.7934 9.70749C3.83437 9.61555 3.89343 9.5328 3.96707 9.46419L5.43611 7.99514L3.96707 6.5261C3.83467 6.38401 3.7626 6.19609 3.76602 6.00192C3.76945 5.80774 3.84811 5.62248 3.98544 5.48515C4.12276 5.34783 4.30802 5.26917 4.5022 5.26574C4.69637 5.26232 4.8843 5.33439 5.02638 5.46679L7.02508 7.46549C7.16544 7.60602 7.24428 7.79652 7.24428 7.99514C7.24428 8.19376 7.16544 8.38426 7.02508 8.5248L5.02638 10.5235Z" fill="#B3B3B3"/>
<path d="M0.99935 0C0.734306 0 0.480117 0.105288 0.292703 0.292703C0.105288 0.480117 0 0.734306 0 0.99935L0 14.9903C0 15.2553 0.105288 15.5095 0.292703 15.6969C0.480117 15.8843 0.734306 15.9896 0.99935 15.9896H14.9903C15.2553 15.9896 15.5095 15.8843 15.6969 15.6969C15.8843 15.5095 15.9896 15.2553 15.9896 14.9903V0.99935C15.9896 0.734306 15.8843 0.480117 15.6969 0.292703C15.5095 0.105288 15.2553 0 14.9903 0L0.99935 0ZM1.49902 1.49902H9.49382V14.4906H1.49902V1.49902ZM14.4906 14.4906H10.9929V1.49902H14.4906V14.4906Z" fill="#B3B3B3"/>
</svg>
