<svg width="25" height="25" viewBox="0 0 25 25" fill="none" xmlns="http://www.w3.org/2000/svg">
<path d="M1.03125 12.9847C1.03125 6.91221 5.9542 1.98926 12.0267 1.98926C18.0991 1.98926 23.0221 6.91221 23.0221 12.9847C23.0221 19.0571 18.0991 23.9801 12.0267 23.9801C5.9542 23.9801 1.03125 19.0571 1.03125 12.9847ZM17.4224 10.6057C17.6 10.4163 17.6969 10.1653 17.6927 9.90569C17.6885 9.64611 17.5835 9.39836 17.3998 9.21486C17.2162 9.03135 16.9684 8.92649 16.7088 8.92245C16.4492 8.91842 16.1983 9.01554 16.009 9.19326L10.0005 15.2008L8.1073 13.3085C7.91878 13.1265 7.66628 13.0257 7.40419 13.028C7.14211 13.0303 6.8914 13.1354 6.70607 13.3207C6.52074 13.506 6.41561 13.7568 6.41333 14.0188C6.41106 14.2809 6.51181 14.5334 6.69389 14.722L10.0005 18.0286L17.4224 10.6057Z" fill="#1ED760"/>
</svg>
