<svg width="24" height="24" viewBox="0 0 24 24" fill="none" xmlns="http://www.w3.org/2000/svg">
<path d="M10.532 1.27893C5.35117 1.27893 1.125 5.41887 1.125 10.5579C1.125 15.697 5.35117 19.8369 10.532 19.8369C12.766 19.8369 14.8225 19.0671 16.4392 17.7794L20.7919 22.132C21.1824 22.5226 21.8156 22.5226 22.2061 22.132C22.5966 21.7415 22.5966 21.1083 22.2061 20.7178L17.8624 16.3741C19.1606 14.7849 19.939 12.7634 19.939 10.5579C19.939 5.41887 15.7128 1.27893 10.532 1.27893ZM3.125 10.5579C3.125 6.55226 6.4267 3.27893 10.532 3.27893C14.6373 3.27893 17.939 6.55226 17.939 10.5579C17.939 14.5636 14.6373 17.8369 10.532 17.8369C6.4267 17.8369 3.125 14.5636 3.125 10.5579Z" fill="#B3B3B3"/>
</svg>
