<svg width="17" height="16" viewBox="0 0 17 16" fill="none" xmlns="http://www.w3.org/2000/svg">
<path d="M8.15217 16H8.00017C5.88512 15.9799 3.8641 15.123 2.37916 13.6168C0.894214 12.1105 0.0662152 10.0775 0.0762623 7.96237C0.0863093 5.84724 0.933585 3.82217 2.43277 2.33009C3.93195 0.838013 5.96102 0.000366211 8.07617 0.000366211C10.1913 0.000366211 12.2204 0.838013 13.7196 2.33009C15.2188 3.82217 16.066 5.84724 16.0761 7.96237C16.0861 10.0775 15.2581 12.1105 13.7732 13.6168C12.2882 15.123 10.2672 15.9799 8.15217 16ZM7.74217 1.79801C7.51617 2.07101 7.27917 2.51101 7.06517 3.12101C6.69617 4.17601 6.43917 5.61701 6.37817 7.25001H9.92517C9.86517 5.61701 9.60717 4.17601 9.23817 3.12101C9.02517 2.51101 8.78817 2.07101 8.56217 1.79801C8.36817 1.56301 8.23617 1.51301 8.17717 1.50201H8.13317C8.07817 1.50901 7.94317 1.55401 7.74217 1.79801ZM4.87717 7.25001C4.93917 5.47901 5.21717 3.86401 5.65017 2.62601C5.74917 2.34201 5.85817 2.07201 5.97917 1.82001C4.7985 2.20711 3.75334 2.92417 2.96724 3.88641C2.18115 4.84865 1.68699 6.01584 1.54317 7.25001H4.87717ZM1.54317 8.75C1.68699 9.98417 2.18115 11.1514 2.96724 12.1136C3.75334 13.0758 4.7985 13.7929 5.97917 14.18C5.85457 13.9176 5.74441 13.6485 5.64917 13.374C5.21617 12.136 4.93917 10.521 4.87717 8.75H1.54317ZM6.37817 8.75C6.43917 10.383 6.69617 11.824 7.06517 12.879C7.27917 13.489 7.51617 13.929 7.74217 14.202C7.94417 14.446 8.07817 14.492 8.13317 14.499L8.17717 14.498C8.23717 14.488 8.36717 14.437 8.56217 14.202C8.78817 13.929 9.02517 13.489 9.23817 12.879C9.60817 11.824 9.86417 10.383 9.92517 8.75H6.37817ZM11.4262 8.75C11.3652 10.521 11.0872 12.136 10.6542 13.374C10.5722 13.609 10.4832 13.834 10.3862 14.048C11.4804 13.6155 12.4368 12.8945 13.1537 11.9615C13.8706 11.0286 14.3211 9.91867 14.4572 8.75H11.4272H11.4262ZM14.4572 7.25001C14.321 6.08137 13.8705 4.97153 13.1536 4.0386C12.4367 3.10567 11.4803 2.38455 10.3862 1.95201C10.4832 2.16601 10.5722 2.39201 10.6542 2.62601C11.0872 3.86401 11.3652 5.47901 11.4262 7.25001H14.4572Z" fill="white"/>
</svg>
