<svg width="32" height="32" viewBox="0 0 32 32" fill="none" xmlns="http://www.w3.org/2000/svg">
<path d="M16 0.640137C11.8284 0.640137 11.3054 0.657818 9.66707 0.732569C8.03219 0.807198 6.91562 1.06681 5.93855 1.44654C4.9285 1.83908 4.07191 2.36429 3.21801 3.21819C2.3641 4.07209 1.8389 4.92868 1.44636 5.93873C1.06663 6.91574 0.807015 8.03231 0.732386 9.6672C0.657635 11.3055 0.640015 11.8286 0.640015 16.0001C0.640015 20.1716 0.657635 20.6947 0.732386 22.333C0.807015 23.9679 1.06663 25.0844 1.44636 26.0614C1.8389 27.0715 2.3641 27.9281 3.21801 28.782C4.07191 29.6359 4.9285 30.1611 5.93855 30.5537C6.91562 30.9333 8.03219 31.193 9.66707 31.2676C11.3054 31.3423 11.8284 31.36 16 31.36C20.1715 31.36 20.6945 31.3423 22.3328 31.2676C23.9677 31.193 25.0843 30.9333 26.0613 30.5537C27.0714 30.1611 27.9279 29.6359 28.7819 28.782C29.6358 27.9281 30.161 27.0715 30.5536 26.0614C30.9332 25.0844 31.1929 23.9679 31.2675 22.333C31.3422 20.6947 31.3599 20.1716 31.3599 16.0001C31.3599 11.8286 31.3422 11.3055 31.2675 9.6672C31.1929 8.03231 30.9332 6.91574 30.5536 5.93873C30.161 4.92868 29.6358 4.07209 28.7819 3.21819C27.9279 2.36429 27.0714 1.83908 26.0613 1.44654C25.0843 1.06681 23.9677 0.807198 22.3328 0.732569C20.6945 0.657818 20.1715 0.640137 16 0.640137ZM16 3.40775C20.1012 3.40775 20.5871 3.42336 22.2067 3.49726C23.7043 3.56561 24.5176 3.81583 25.0588 4.02612C25.7758 4.30476 26.2875 4.63767 26.8249 5.17513C27.3624 5.71259 27.6953 6.22432 27.9739 6.94123C28.1843 7.48247 28.4345 8.29577 28.5028 9.79335C28.5767 11.413 28.5924 11.8988 28.5924 16.0001C28.5924 20.1014 28.5767 20.5872 28.5028 22.2068C28.4345 23.7044 28.1843 24.5177 27.9739 25.0589C27.6953 25.7759 27.3624 26.2876 26.8249 26.825C26.2875 27.3626 25.7758 27.6954 25.0588 27.974C24.5176 28.1844 23.7043 28.4346 22.2067 28.5029C20.5873 28.5768 20.1015 28.5925 16 28.5925C11.8984 28.5925 11.4127 28.5768 9.79322 28.5029C8.29564 28.4346 7.48235 28.1844 6.9411 27.974C6.22414 27.6954 5.71247 27.3626 5.17495 26.825C4.63748 26.2876 4.30458 25.7759 4.026 25.0589C3.81565 24.5177 3.56542 23.7044 3.49707 22.2068C3.42318 20.5872 3.40757 20.1014 3.40757 16.0001C3.40757 11.8988 3.42318 11.413 3.49707 9.79335C3.56542 8.29577 3.81565 7.48247 4.026 6.94123C4.30458 6.22432 4.63748 5.71259 5.17495 5.17513C5.71247 4.63767 6.22414 4.30476 6.9411 4.02612C7.48235 3.81583 8.29564 3.56561 9.79322 3.49726C11.4129 3.42336 11.8987 3.40775 16 3.40775Z" fill="white"/>
<path d="M16 21.1201C13.1723 21.1201 10.88 18.8278 10.88 16.0001C10.88 13.1724 13.1723 10.8801 16 10.8801C18.8277 10.8801 21.1199 13.1724 21.1199 16.0001C21.1199 18.8278 18.8277 21.1201 16 21.1201ZM16 8.11255C11.6438 8.11255 8.11243 11.6439 8.11243 16.0001C8.11243 20.3563 11.6438 23.8876 16 23.8876C20.3562 23.8876 23.8875 20.3563 23.8875 16.0001C23.8875 11.6439 20.3562 8.11255 16 8.11255Z" fill="white"/>
<path d="M26.0424 7.80093C26.0424 8.81891 25.2171 9.64409 24.1991 9.64409C23.1812 9.64409 22.356 8.81891 22.356 7.80093C22.356 6.78295 23.1812 5.95776 24.1991 5.95776C25.2171 5.95776 26.0424 6.78295 26.0424 7.80093Z" fill="white"/>
</svg>
