<svg width="32" height="26" viewBox="0 0 32 26" fill="none" xmlns="http://www.w3.org/2000/svg">
<path d="M31.641 3.29857C30.491 3.80974 29.2534 4.15455 27.9548 4.30885C29.2807 3.5151 30.2973 2.2578 30.7767 0.757936C29.5366 1.4939 28.1637 2.02793 26.7013 2.31622C25.531 1.06909 23.8629 0.289307 22.0169 0.289307C18.473 0.289307 15.5996 3.16268 15.5996 6.70724C15.5996 7.20953 15.6561 7.69911 15.766 8.16964C10.432 7.90168 5.70253 5.34707 2.53706 1.46405C1.98461 2.41147 1.66838 3.51383 1.66838 4.69112C1.66838 6.91743 2.80122 8.88211 4.52333 10.0327C3.47177 9.99908 2.48181 9.71015 1.61631 9.22946C1.61567 9.25613 1.61567 9.28343 1.61567 9.31074C1.61567 12.4197 3.82801 15.013 6.76424 15.6036C6.22576 15.7496 5.65871 15.8284 5.07324 15.8284C4.65922 15.8284 4.25727 15.7884 3.86547 15.7128C4.68272 18.2623 7.05253 20.1184 9.8605 20.1699C7.66404 21.8913 4.89735 22.9175 1.88999 22.9175C1.37247 22.9175 0.861293 22.887 0.359009 22.8273C3.19999 24.6491 6.57311 25.7109 10.197 25.7109C22.0023 25.7109 28.4571 15.9319 28.4571 7.45083C28.4571 7.1727 28.4514 6.8952 28.4393 6.61961C29.6928 5.71664 30.7812 4.58571 31.641 3.29857Z" fill="white"/>
</svg>
