<svg width="56" height="56" viewBox="0 0 56 56" fill="none" xmlns="http://www.w3.org/2000/svg">
<path d="M43.641 18.2986C42.491 18.8097 41.2534 19.1545 39.9548 19.3089C41.2807 18.5151 42.2973 17.2578 42.7767 15.7579C41.5366 16.4939 40.1637 17.0279 38.7013 17.3162C37.531 16.0691 35.8629 15.2893 34.0169 15.2893C30.473 15.2893 27.5996 18.1627 27.5996 21.7072C27.5996 22.2095 27.6561 22.6991 27.766 23.1696C22.432 22.9017 17.7025 20.3471 14.5371 16.4641C13.9846 17.4115 13.6684 18.5138 13.6684 19.6911C13.6684 21.9174 14.8012 23.8821 16.5233 25.0327C15.4718 24.9991 14.4818 24.7102 13.6163 24.2295C13.6157 24.2561 13.6157 24.2834 13.6157 24.3107C13.6157 27.4197 15.828 30.013 18.7642 30.6036C18.2258 30.7496 17.6587 30.8284 17.0732 30.8284C16.6592 30.8284 16.2573 30.7884 15.8655 30.7128C16.6827 33.2623 19.0525 35.1184 21.8605 35.1699C19.664 36.8913 16.8973 37.9175 13.89 37.9175C13.3725 37.9175 12.8613 37.887 12.359 37.8273C15.2 39.6491 18.5731 40.7109 22.197 40.7109C34.0023 40.7109 40.4571 30.9319 40.4571 22.4508C40.4571 22.1727 40.4514 21.8952 40.4393 21.6196C41.6928 20.7166 42.7812 19.5857 43.641 18.2986Z" fill="white"/>
</svg>
