<svg width="58" height="58" viewBox="0 0 58 58" fill="none" xmlns="http://www.w3.org/2000/svg">
<path d="M3.2728 0.72718L57.273 54.727C57.9757 55.4301 57.9757 56.5698 57.273 57.2729C56.5699 57.9756 55.4301 57.9756 54.7271 57.2729L50.1633 52.7088C48.7406 53.6513 47.0342 54.2 45.2 54.2H12.8C7.82946 54.2 3.80002 50.1705 3.80002 45.2V12.8C3.80002 10.9656 4.34881 9.25943 5.29114 7.83664L0.727241 3.27274C0.0242692 2.5698 0.0242692 1.43012 0.727241 0.72718C1.43018 0.0242082 2.56986 0.0242082 3.2728 0.72718ZM45.9445 48.49L32.6 35.1455V38C32.6 38.9939 31.794 39.8 30.8 39.8H16.4C15.4059 39.8 14.6 38.9939 14.6 38V23.6C14.6 22.6059 15.4059 21.8 16.4 21.8H19.2544L15.6544 18.2H9.20002V44.3C9.20002 46.7854 11.2147 48.8 13.7 48.8H44.3C44.8803 48.8 45.4351 48.6902 45.9445 48.49ZM22.8544 25.4H18.2V36.2H29V31.5455L22.8544 25.4ZM48.8 41.1633V18.2H25.8368L11.5263 3.88938C11.9424 3.83045 12.3676 3.79996 12.8 3.79996H45.2C50.1705 3.79996 54.2 7.8294 54.2 12.8V45.2C54.2 45.6323 54.1694 46.0575 54.1107 46.4736L48.8 41.1633Z" stroke="var(--fg-color, currentColor)"
    stroke-width="1.25"
    fill="none"/>
</svg>
