<svg width="54" height="64" viewBox="0 0 54 64" fill="none" xmlns="http://www.w3.org/2000/svg">
<path d="M7.20708 49.1422C3.24145 49.1422 0.00708008 52.3625 0.00708008 56.314C0.00708008 60.2656 3.24145 63.4859 7.20708 63.4859H12.4383C14.5899 63.4859 16.5024 62.5297 17.8243 61.039C17.8383 61.025 17.8665 61.025 17.8805 61.0109C17.9649 60.9265 18.0211 60.8 18.0915 60.7156C18.2743 60.4906 18.443 60.2656 18.5836 60.0125C19.9196 58.0156 20.5524 55.3859 20.5524 53.375C20.5524 51.0125 20.5524 25.6297 20.5524 25.6297C20.5524 25.5453 20.5524 25.475 20.5524 25.3906C20.5524 25.3203 20.5524 25.2359 20.5524 25.1656C20.6649 23.1687 22.1274 21.5515 24.0821 21.1015C24.3211 21.0453 24.8415 20.9328 24.8415 20.9328L45.9211 16.939C46.0196 16.925 46.104 16.9109 46.2024 16.8969C46.3149 16.8828 46.4133 16.8828 46.5399 16.8828C48.2415 16.8828 49.5071 18.2187 49.5071 19.864C49.5071 19.864 49.5071 34.7422 49.5071 38.3422C49.5071 41.9281 49.9149 42.8281 43.8118 42.8281H40.9852C37.0055 42.8281 33.7852 46.0484 33.7852 50C33.7852 53.9515 37.0055 57.1719 40.9852 57.1719H46.2165C48.7758 57.1719 51.0118 55.85 52.2915 53.8531C52.2915 53.839 52.3055 53.8531 52.3196 53.8531C53.5852 52.1375 53.993 49.55 53.993 46.0765C53.993 42.589 53.993 3.49529 53.993 3.49529C53.993 1.84998 52.6008 0.514038 50.8993 0.514038C50.8008 0.514038 50.7024 0.5281 50.618 0.5281L50.1821 0.598413L19.5961 6.39216C17.6555 6.91248 15.8977 8.76873 15.7571 10.8078C15.7571 10.8219 15.7571 10.8219 15.7571 10.8359C15.7571 10.85 15.7571 10.85 15.7571 10.864C15.7571 10.864 15.7571 44.0797 15.7571 46.0344C15.7571 47.989 16.0383 49.1562 9.04927 49.1562H7.20708V49.1422Z" stroke="var(--fg-color, currentColor)"
    stroke-width="1.25"
    fill="none"/>
</svg>
