<svg width="56" height="50" viewBox="0 0 56 50" fill="none" xmlns="http://www.w3.org/2000/svg">
<path d="M28.0208 43.8999C30.506 43.8999 32.5208 41.8852 32.5208 39.3999C32.5208 36.9146 30.506 34.8999 28.0208 34.8999C25.5355 34.8999 23.5208 36.9146 23.5208 39.3999C23.5208 41.8852 25.5355 43.8999 28.0208 43.8999Z" stroke="var(--fg-color, currentColor)"
    stroke-width="1.25"
    fill="none"/>
<path d="M51.7208 42.3999L54.1208 39.9999C55.3208 38.7999 55.3208 36.9999 54.1208 35.7999C52.9208 34.5999 51.1208 34.5999 49.9208 35.7999L47.5208 38.1999L45.1208 35.7999C43.9208 34.5999 42.1208 34.5999 40.9208 35.7999C39.7208 36.9999 39.7208 38.7999 40.9208 39.9999L43.3208 42.3999L40.9208 44.7999C39.7208 45.9999 39.7208 47.7999 40.9208 48.9999C41.5208 49.5999 42.4208 49.8999 43.0208 49.8999C43.6208 49.8999 44.5208 49.5999 45.1208 48.9999L47.5208 46.5999L49.9208 48.9999C50.5208 49.5999 51.4208 49.8999 52.0208 49.8999C52.6208 49.8999 53.5208 49.5999 54.1208 48.9999C55.3208 47.7999 55.3208 45.9999 54.1208 44.7999L51.7208 42.3999Z" stroke="var(--fg-color, currentColor)"
    stroke-width="1.25"
    fill="none"/>
<path d="M28.0208 23.5C23.8208 23.5 19.9208 25.3 17.2208 28.3C16.0208 29.5 16.0208 31.3 17.2208 32.5C18.4208 33.7 20.2208 33.7 21.4208 32.5C25.0208 28.6 31.0208 28.6 34.3208 32.5C34.9208 33.1 35.8208 33.4 36.4208 33.4C37.0208 33.4 37.9208 33.1 38.5208 32.5C39.7208 31.3 39.7208 29.5 38.5208 28.3C36.1208 25.3 32.2208 23.5 28.0208 23.5Z" stroke="var(--fg-color, currentColor)"
    stroke-width="1.25"
    fill="none"/>
<path d="M42.4207 23.4999C43.0207 24.0999 43.6207 24.3999 44.5207 24.3999C45.4207 24.3999 46.0207 24.0999 46.6207 23.4999C47.8207 22.2999 47.8207 20.4999 46.6207 19.2999C41.5207 14.4999 34.9207 11.7999 28.3207 11.7999C21.7207 11.7999 14.8207 14.4999 10.0207 19.2999C8.82073 20.4999 8.82073 22.2999 10.0207 23.4999C11.2207 24.6999 13.0207 24.6999 14.2207 23.4999C18.1207 19.5999 23.2207 17.4999 28.6207 17.4999C34.0207 17.4999 38.2207 19.5999 42.4207 23.4999Z" stroke="var(--fg-color, currentColor)"
    stroke-width="1.25"
    fill="none"/>
<path d="M49.9208 14.5C50.5208 15.1 51.1208 15.4 52.0208 15.4C52.9208 15.4 53.5208 15.1 54.1208 14.5C55.3208 13.3 55.0208 11.5 53.8208 10.3C46.6208 3.69998 37.3208 0.0999756 27.7208 0.0999756C18.1208 0.0999756 9.42078 3.39997 1.92078 9.99998C0.720779 11.2 0.72078 13 1.62078 14.2C2.82078 15.4 4.62078 15.4 5.82078 14.5C12.4208 8.79997 19.9208 5.79998 28.0208 5.79998C36.1208 5.79998 43.6208 8.79997 49.9208 14.5Z" stroke="var(--fg-color, currentColor)"
    stroke-width="1.25"
    fill="none"/>
</svg>
