<svg width="21" height="22" viewBox="0 0 21 22" fill="none" xmlns="http://www.w3.org/2000/svg">
<g clip-path="url(#clip0_431_29182)">
<path d="M20.872 10.7752C20.7151 10.5012 16.9612 4.05713 10.5 4.05713C4.03856 4.05713 0.284558 10.5012 0.127892 10.7752L0 10.9997L0.127935 11.2243C0.2846 11.4983 4.03861 17.9428 10.5 17.9428C16.9612 17.9428 20.7152 11.4983 20.8721 11.2243L21 10.9997L20.872 10.7752ZM10.5 17.0686C5.17035 17.0686 1.70158 12.1233 0.982795 10.9997C1.70158 9.87666 5.17031 4.93139 10.5 4.93139C15.8297 4.93139 19.2984 9.87666 20.0172 10.9997C19.2984 12.1233 15.8296 17.0686 10.5 17.0686Z" fill="black"/>
<path d="M10.5 6.23779C7.99347 6.23779 5.9541 8.37427 5.9541 10.9999C5.9541 13.626 7.99347 15.7625 10.5 15.7625C13.0067 15.7625 15.0461 13.626 15.0461 10.9999C15.0461 8.37427 13.0067 6.23779 10.5 6.23779ZM10.5 14.8883C8.45351 14.8883 6.78858 13.1441 6.78858 10.9999C6.78858 8.85622 8.45347 7.11201 10.5 7.11201C12.5467 7.11201 14.2116 8.85617 14.2116 10.9999C14.2116 13.1441 12.5467 14.8883 10.5 14.8883Z" fill="black"/>
<path d="M10.5004 9.20898C9.5579 9.20898 8.79102 10.0123 8.79102 10.9997C8.79102 11.987 9.55786 12.7904 10.5004 12.7904C11.4428 12.7904 12.2097 11.9871 12.2097 10.9997C12.2097 10.0123 11.4428 9.20898 10.5004 9.20898ZM10.5004 11.9162C10.0179 11.9162 9.62554 11.5051 9.62554 10.9997C9.62554 10.4942 10.0179 10.0832 10.5004 10.0832C10.9828 10.0832 11.3752 10.4943 11.3752 10.9997C11.3752 11.5051 10.9828 11.9162 10.5004 11.9162Z" fill="black"/>
</g>
<line x1="19.3427" y1="2.3641" x2="2.34268" y2="18.3641" stroke="black"/>
<defs>
<clipPath id="clip0_431_29182">
<rect width="21" height="22" fill="white"/>
</clipPath>
</defs>
</svg>
