<svg width="44" height="74" viewBox="0 0 44 74" fill="none" xmlns="http://www.w3.org/2000/svg">
<path d="M39.1866 0.187134H4.81351C3.5849 0.187134 2.40661 0.675198 1.53785 1.54396C0.669094 2.41272 0.18103 3.59101 0.18103 4.81962L0.18103 69.1803C0.18103 70.4089 0.669094 71.5872 1.53785 72.4559C2.40661 73.3247 3.5849 73.8128 4.81351 73.8128H39.1866C40.4152 73.8128 41.5935 73.3247 42.4622 72.4559C43.331 71.5872 43.819 70.4089 43.819 69.1803V4.81962C43.819 3.59101 43.331 2.41272 42.4622 1.54396C41.5935 0.675198 40.4152 0.187134 39.1866 0.187134ZM40.7307 69.1803C40.7307 69.5898 40.568 69.9826 40.2784 70.2722C39.9888 70.5617 39.5961 70.7244 39.1866 70.7244H4.81351C4.40398 70.7244 4.01121 70.5617 3.72163 70.2722C3.43204 69.9826 3.26935 69.5898 3.26935 69.1803V4.81962C3.26935 4.41008 3.43204 4.01732 3.72163 3.72773C4.01121 3.43814 4.40398 3.27546 4.81351 3.27546H39.1866C39.5961 3.27546 39.9888 3.43814 40.2784 3.72773C40.568 4.01732 40.7307 4.41008 40.7307 4.81962V69.1803Z" stroke="var(--fg-color, currentColor)"
    stroke-width="1.25"
    fill="none"/>
<path d="M23.8064 62.7876H20.1622C19.7527 62.7876 19.3599 62.9503 19.0703 63.2399C18.7807 63.5295 18.618 63.9222 18.618 64.3318C18.618 64.7413 18.7807 65.1341 19.0703 65.4236C19.3599 65.7132 19.7527 65.8759 20.1622 65.8759H23.8064C24.216 65.8759 24.6087 65.7132 24.8983 65.4236C25.1879 65.1341 25.3506 64.7413 25.3506 64.3318C25.3506 63.9222 25.1879 63.5295 24.8983 63.2399C24.6087 62.9503 24.216 62.7876 23.8064 62.7876Z" stroke="var(--fg-color, currentColor)"
    stroke-width="1.25"
    fill="none"/>
<path d="M15.181 38.2234V34.1698H17.479C19.7181 34.1698 21.0733 33.3499 21.5447 31.71H15.181V29.3541L17.7972 29.1462H21.5093C21.2736 28.4302 20.814 27.9336 20.1305 27.6564C19.447 27.3793 18.5632 27.2407 17.479 27.2407H15.181V23.1871H29.181V25.7509H24.5144C25.6457 26.5362 26.3645 27.668 26.6709 29.1462H29.181V31.71H26.7063C26.5413 33.1189 26.0817 34.2968 25.3275 35.2438C24.5733 36.1677 23.6423 36.8722 22.5346 37.3572L28.58 45.1871H22.7467L17.6911 38.2234H15.181Z" stroke="var(--fg-color, currentColor)"
    stroke-width="1.25"
    fill="none"/>
</svg>
