<svg viewBox="0 0 724 558" fill="none" xmlns="http://www.w3.org/2000/svg">
	<g opacity="0.4">
		<path d="M624.951 286.726C491.081 175.26 314.64 115.165 129.694 126.965C104.652 128.516 82.0837 112.997 79.5972 90.1948C77.0724 67.4737 98.3652 45.8787 126.698 44.1776C332.319 31.6559 529.193 98.7821 679.028 224.025C699.744 241.303 702.211 269.479 686.046 285.618C669.822 301.779 643.093 301.769 624.951 286.726Z" fill="currentColor"/>
		<path d="M548.262 415.09C432.538 318.14 279.517 265.997 119.184 276.738C98.8642 278.076 80.4068 265.336 78.3638 246.841C78.2274 245.408 78.0909 243.975 77.9374 242.538C75.9329 224.034 93.2702 206.458 116.294 204.99C294.694 193.571 465.568 251.854 595.208 360.875C612.031 375.01 614.064 397.955 600.964 411.108C599.948 412.129 598.946 413.171 597.947 414.196C584.783 427.388 562.996 427.382 548.262 415.09Z" fill="currentColor"/>
		<path d="M477.154 518.248C378.851 435.436 248.493 391.002 111.92 400.529C95.6129 401.659 80.8803 391.494 79.2579 376.664C79.0164 374.333 78.792 372.006 78.5676 369.679C76.9752 354.875 90.8776 340.83 109.354 339.6C261.349 329.433 407.013 379.14 517.182 472.318C530.626 483.655 532.279 502.035 521.773 512.559L516.9 517.569C506.296 528.122 488.852 528.117 477.154 518.248Z" fill="currentColor"/>
	</g>
</svg>
