<svg width="111" height="36" viewBox="0 0 111 36" fill="none" xmlns="http://www.w3.org/2000/svg">
<g clip-path="url(#clip0_165_39)">
<path d="M18 36C27.9411 36 36 27.9411 36 18C36 8.05887 27.9411 0 18 0C8.05887 0 0 8.05887 0 18C0 27.9411 8.05887 36 18 36Z" fill="#1ED760"/>
<path d="M28.3247 14.6784C22.0789 11.6458 14.6771 11.0081 7.63386 13.2335C6.67971 13.533 5.65807 13.1484 5.34378 12.2899C5.02878 11.4349 5.64612 10.3957 6.72612 10.0589C14.5624 7.6078 22.8221 8.32218 29.8174 11.7351C30.7842 12.2055 31.1492 13.2722 30.6781 14.0512C30.2049 14.8317 29.1706 15.0869 28.3247 14.6784Z" fill="#212121"/>
<path d="M26.5852 20.3787C21.1802 17.7342 14.7607 17.1802 8.65969 19.1292C7.88625 19.3753 7.05024 19.0589 6.7943 18.3628C6.77531 18.3087 6.75633 18.2545 6.73664 18.2004C6.48211 17.5036 6.98485 16.6577 7.86164 16.3807C14.6552 14.2327 21.8243 14.8535 27.8831 17.832C28.6692 18.218 28.9673 19.0863 28.5863 19.7206C28.5567 19.7698 28.5279 19.8197 28.4991 19.8689C28.1159 20.5052 27.2728 20.7134 26.5852 20.3787Z" fill="#212121"/>
<path d="M24.8203 25.0502C20.2247 22.7862 14.7558 22.3137 9.5625 23.9885C8.94235 24.1882 8.27508 23.9358 8.07047 23.3775C8.03883 23.2896 8.00789 23.2017 7.97696 23.1138C7.77375 22.5563 8.17735 21.8799 8.88047 21.6556C14.6644 19.8084 20.7759 20.3386 25.9298 22.8902C26.5584 23.2003 26.7982 23.8957 26.4923 24.4034L26.3517 24.6438C26.0423 25.1536 25.3673 25.3202 24.8203 25.0502Z" fill="#212121"/>
</g>
<path d="M46.624 27.288C45.6 27.288 44.576 27.096 43.552 26.712C42.544 26.328 41.64 25.768 40.84 25.032L42.856 22.608C43.416 23.088 44.04 23.48 44.728 23.784C45.416 24.088 46.08 24.24 46.72 24.24C47.456 24.24 48 24.104 48.352 23.832C48.72 23.56 48.904 23.192 48.904 22.728C48.904 22.232 48.696 21.872 48.28 21.648C47.88 21.408 47.336 21.144 46.648 20.856L44.608 19.992C44.08 19.768 43.576 19.472 43.096 19.104C42.616 18.72 42.224 18.248 41.92 17.688C41.616 17.128 41.464 16.472 41.464 15.72C41.464 14.856 41.696 14.072 42.16 13.368C42.64 12.664 43.296 12.104 44.128 11.688C44.976 11.272 45.944 11.064 47.032 11.064C47.928 11.064 48.824 11.24 49.72 11.592C50.616 11.944 51.4 12.456 52.072 13.128L50.272 15.36C49.76 14.96 49.248 14.656 48.736 14.448C48.224 14.224 47.656 14.112 47.032 14.112C46.424 14.112 45.936 14.24 45.568 14.496C45.216 14.736 45.04 15.08 45.04 15.528C45.04 16.008 45.264 16.368 45.712 16.608C46.176 16.848 46.744 17.104 47.416 17.376L49.432 18.192C50.376 18.576 51.128 19.104 51.688 19.776C52.248 20.448 52.528 21.336 52.528 22.44C52.528 23.304 52.296 24.104 51.832 24.84C51.368 25.576 50.696 26.168 49.816 26.616C48.936 27.064 47.872 27.288 46.624 27.288ZM53.9359 31.416V15.096H56.8159L57.0559 16.272H57.1519C57.6159 15.856 58.1359 15.512 58.7119 15.24C59.3039 14.952 59.9119 14.808 60.5359 14.808C61.9759 14.808 63.1119 15.36 63.9439 16.464C64.7759 17.552 65.1919 19.016 65.1919 20.856C65.1919 22.216 64.9519 23.376 64.4719 24.336C63.9919 25.296 63.3679 26.032 62.5999 26.544C61.8479 27.04 61.0399 27.288 60.1759 27.288C59.6639 27.288 59.1679 27.184 58.6879 26.976C58.2079 26.752 57.7599 26.44 57.3439 26.04L57.4639 27.936V31.416H53.9359ZM59.3599 24.408C59.9679 24.408 60.4879 24.128 60.9199 23.568C61.3519 23.008 61.5679 22.12 61.5679 20.904C61.5679 18.76 60.8799 17.688 59.5039 17.688C58.8159 17.688 58.1359 18.048 57.4639 18.768V23.64C57.7839 23.928 58.1039 24.128 58.4239 24.24C58.7439 24.352 59.0559 24.408 59.3599 24.408ZM71.8458 27.288C70.8378 27.288 69.8858 27.048 68.9898 26.568C68.1098 26.072 67.3977 25.36 66.8537 24.432C66.3097 23.488 66.0377 22.36 66.0377 21.048C66.0377 19.72 66.3097 18.592 66.8537 17.664C67.3977 16.736 68.1098 16.032 68.9898 15.552C69.8858 15.056 70.8378 14.808 71.8458 14.808C72.8538 14.808 73.7978 15.056 74.6778 15.552C75.5578 16.032 76.2698 16.736 76.8138 17.664C77.3578 18.592 77.6298 19.72 77.6298 21.048C77.6298 22.36 77.3578 23.488 76.8138 24.432C76.2698 25.36 75.5578 26.072 74.6778 26.568C73.7978 27.048 72.8538 27.288 71.8458 27.288ZM71.8458 24.432C72.5658 24.432 73.1098 24.128 73.4778 23.52C73.8458 22.896 74.0298 22.072 74.0298 21.048C74.0298 20.008 73.8458 19.184 73.4778 18.576C73.1098 17.968 72.5658 17.664 71.8458 17.664C71.1098 17.664 70.5578 17.968 70.1898 18.576C69.8378 19.184 69.6618 20.008 69.6618 21.048C69.6618 22.072 69.8378 22.896 70.1898 23.52C70.5578 24.128 71.1098 24.432 71.8458 24.432ZM83.0374 27.288C81.5654 27.288 80.5094 26.864 79.8694 26.016C79.2454 25.168 78.9334 24.056 78.9334 22.68V17.856H77.3014V15.24L79.1254 15.096L79.5334 11.928H82.4614V15.096H85.3174V17.856H82.4614V22.632C82.4614 23.304 82.5974 23.792 82.8694 24.096C83.1574 24.384 83.5334 24.528 83.9974 24.528C84.1894 24.528 84.3814 24.504 84.5734 24.456C84.7814 24.408 84.9654 24.352 85.1254 24.288L85.6774 26.856C85.3734 26.952 84.9974 27.048 84.5494 27.144C84.1174 27.24 83.6134 27.288 83.0374 27.288ZM86.6809 27V15.096H90.2089V27H86.6809ZM88.4329 13.344C87.8409 13.344 87.3609 13.176 86.9929 12.84C86.6249 12.504 86.4409 12.056 86.4409 11.496C86.4409 10.936 86.6249 10.488 86.9929 10.152C87.3609 9.816 87.8409 9.648 88.4329 9.648C89.0249 9.648 89.5049 9.816 89.8729 10.152C90.2409 10.488 90.4249 10.936 90.4249 11.496C90.4249 12.056 90.2409 12.504 89.8729 12.84C89.5049 13.176 89.0249 13.344 88.4329 13.344ZM92.9538 27V17.856H91.3698V15.24L92.9538 15.12V14.472C92.9538 13.624 93.0978 12.856 93.3858 12.168C93.6738 11.48 94.1378 10.928 94.7778 10.512C95.4178 10.096 96.2738 9.888 97.3458 9.888C97.8418 9.888 98.2978 9.936 98.7138 10.032C99.1298 10.128 99.4658 10.224 99.7218 10.32L99.0738 12.912C98.8658 12.832 98.6578 12.776 98.4498 12.744C98.2418 12.696 98.0418 12.672 97.8498 12.672C97.4178 12.672 97.0818 12.808 96.8418 13.08C96.6018 13.336 96.4818 13.768 96.4818 14.376V15.096H98.6178V17.856H96.4818V27H92.9538ZM100.893 31.656C100.541 31.656 100.229 31.632 99.9574 31.584C99.7014 31.536 99.4534 31.48 99.2134 31.416L99.8374 28.728C99.9494 28.744 100.077 28.768 100.221 28.8C100.365 28.848 100.501 28.872 100.629 28.872C101.221 28.872 101.677 28.728 101.997 28.44C102.317 28.152 102.557 27.776 102.717 27.312L102.885 26.688L98.3014 15.096H101.853L103.557 20.208C103.733 20.752 103.893 21.304 104.037 21.864C104.181 22.424 104.333 23 104.493 23.592H104.589C104.717 23.032 104.845 22.472 104.973 21.912C105.117 21.336 105.261 20.768 105.405 20.208L106.845 15.096H110.229L106.101 27.12C105.733 28.112 105.325 28.944 104.877 29.616C104.429 30.304 103.885 30.816 103.245 31.152C102.621 31.488 101.837 31.656 100.893 31.656Z"
    fill="var(--fg-color, currentColor)"/>
<defs>
<clipPath id="clip0_165_39">
<rect width="36" height="36" fill="white"/>
</clipPath>
</defs>
</svg>
