<?xml version="1.0" encoding="UTF-8" standalone="no"?>
<!DOCTYPE svg PUBLIC "-//W3C//DTD SVG 1.1//EN"
 "http://www.w3.org/Graphics/SVG/1.1/DTD/svg11.dtd">
<!-- Generated by graphviz version 2.47.0 (20210316.0004)
 -->
<!-- Title: dependencies Pages: 1 -->
<svg width="1090pt" height="211pt"
 viewBox="0.00 0.00 1090.00 211.00" xmlns="http://www.w3.org/2000/svg" xmlns:xlink="http://www.w3.org/1999/xlink">
<g id="graph0" class="graph" transform="scale(1 1) rotate(0) translate(4 207)">
<title>dependencies</title>
<polygon fill="white" stroke="transparent" points="-4,4 -4,-207 1086,-207 1086,4 -4,4"/>
<text text-anchor="start" x="520.01" y="-42.4" font-family="Times-12" font-weight="bold" font-size="14.00">Legend</text>
<polygon fill="#ffffb3" stroke="transparent" points="307,-10 307,-30 327,-30 327,-10 307,-10"/>
<text text-anchor="start" x="330.63" y="-15.4" font-family="Times-12" font-size="14.00"> &#160;Declarations</text>
<polygon fill="#8dd3c7" stroke="transparent" points="420,-10 420,-30 440,-30 440,-10 420,-10"/>
<text text-anchor="start" x="443.73" y="-15.4" font-family="Times-12" font-size="14.00"> &#160;Module</text>
<polygon fill="#80b1d3" stroke="transparent" points="506,-10 506,-30 526,-30 526,-10 506,-10"/>
<text text-anchor="start" x="529.78" y="-15.4" font-family="Times-12" font-size="14.00"> &#160;Bootstrap</text>
<polygon fill="#fdb462" stroke="transparent" points="603,-10 603,-30 623,-30 623,-10 603,-10"/>
<text text-anchor="start" x="626.67" y="-15.4" font-family="Times-12" font-size="14.00"> &#160;Providers</text>
<polygon fill="#fb8072" stroke="transparent" points="699,-10 699,-30 719,-30 719,-10 699,-10"/>
<text text-anchor="start" x="722.73" y="-15.4" font-family="Times-12" font-size="14.00"> &#160;Exports</text>
<g id="clust1" class="cluster">
<title>cluster_AppModule</title>
<polygon fill="none" stroke="black" stroke-dasharray="1,5" points="8,-70 8,-195 1074,-195 1074,-70 8,-70"/>
</g>
<g id="clust6" class="cluster">
<title>cluster_AppModule_providers</title>
<polygon fill="none" stroke="black" points="936,-78 936,-130 1066,-130 1066,-78 936,-78"/>
</g>
<g id="clust3" class="cluster">
<title>cluster_AppModule_imports</title>
<polygon fill="none" stroke="black" points="16,-78 16,-130 928,-130 928,-78 16,-78"/>
</g>
<!-- AlbumsModule -->
<g id="node1" class="node">
<title>AlbumsModule</title>
<polygon fill="#8dd3c7" stroke="black" points="919.88,-122 916.88,-126 895.88,-126 892.88,-122 816.12,-122 816.12,-86 919.88,-86 919.88,-122"/>
<text text-anchor="middle" x="868" y="-99.8" font-family="Times,serif" font-size="14.00">AlbumsModule</text>
</g>
<!-- AppModule -->
<g id="node9" class="node">
<title>AppModule</title>
<polygon fill="#8dd3c7" stroke="black" points="576.66,-187 573.66,-191 552.66,-191 549.66,-187 493.34,-187 493.34,-151 576.66,-151 576.66,-187"/>
<text text-anchor="middle" x="535" y="-164.8" font-family="Times,serif" font-size="14.00">AppModule</text>
</g>
<!-- AlbumsModule&#45;&gt;AppModule -->
<g id="edge1" class="edge">
<title>AlbumsModule&#45;&gt;AppModule</title>
<path fill="none" stroke="black" d="M868,-122.13C868,-142.57 868,-173 868,-173 868,-173 586.84,-173 586.84,-173"/>
<polygon fill="black" stroke="black" points="586.84,-169.5 576.84,-173 586.84,-176.5 586.84,-169.5"/>
</g>
<!-- ArtistsModule -->
<g id="node2" class="node">
<title>ArtistsModule</title>
<polygon fill="#8dd3c7" stroke="black" points="798.38,-122 795.38,-126 774.38,-126 771.38,-122 701.62,-122 701.62,-86 798.38,-86 798.38,-122"/>
<text text-anchor="middle" x="750" y="-99.8" font-family="Times,serif" font-size="14.00">ArtistsModule</text>
</g>
<!-- ArtistsModule&#45;&gt;AppModule -->
<g id="edge2" class="edge">
<title>ArtistsModule&#45;&gt;AppModule</title>
<path fill="none" stroke="black" d="M750,-122.27C750,-140.56 750,-166 750,-166 750,-166 586.71,-166 586.71,-166"/>
<polygon fill="black" stroke="black" points="586.71,-162.5 576.71,-166 586.71,-169.5 586.71,-162.5"/>
</g>
<!-- AuthModule -->
<g id="node3" class="node">
<title>AuthModule</title>
<polygon fill="#8dd3c7" stroke="black" points="683.55,-122 680.55,-126 659.55,-126 656.55,-122 596.45,-122 596.45,-86 683.55,-86 683.55,-122"/>
<text text-anchor="middle" x="640" y="-99.8" font-family="Times,serif" font-size="14.00">AuthModule</text>
</g>
<!-- AuthModule&#45;&gt;AppModule -->
<g id="edge3" class="edge">
<title>AuthModule&#45;&gt;AppModule</title>
<path fill="none" stroke="black" d="M640,-122.01C640,-138.05 640,-159 640,-159 640,-159 586.8,-159 586.8,-159"/>
<polygon fill="black" stroke="black" points="586.8,-155.5 576.8,-159 586.8,-162.5 586.8,-155.5"/>
</g>
<!-- FilesModule -->
<g id="node4" class="node">
<title>FilesModule</title>
<polygon fill="#8dd3c7" stroke="black" points="578.27,-122 575.27,-126 554.27,-126 551.27,-122 491.73,-122 491.73,-86 578.27,-86 578.27,-122"/>
<text text-anchor="middle" x="535" y="-99.8" font-family="Times,serif" font-size="14.00">FilesModule</text>
</g>
<!-- FilesModule&#45;&gt;AppModule -->
<g id="edge4" class="edge">
<title>FilesModule&#45;&gt;AppModule</title>
<path fill="none" stroke="black" d="M535,-122.11C535,-122.11 535,-140.99 535,-140.99"/>
<polygon fill="black" stroke="black" points="531.5,-140.99 535,-150.99 538.5,-140.99 531.5,-140.99"/>
</g>
<!-- PlaylistsModule -->
<g id="node5" class="node">
<title>PlaylistsModule</title>
<polygon fill="#8dd3c7" stroke="black" points="473.5,-122 470.5,-126 449.5,-126 446.5,-122 366.5,-122 366.5,-86 473.5,-86 473.5,-122"/>
<text text-anchor="middle" x="420" y="-99.8" font-family="Times,serif" font-size="14.00">PlaylistsModule</text>
</g>
<!-- PlaylistsModule&#45;&gt;AppModule -->
<g id="edge5" class="edge">
<title>PlaylistsModule&#45;&gt;AppModule</title>
<path fill="none" stroke="black" d="M420,-122.01C420,-138.05 420,-159 420,-159 420,-159 483.16,-159 483.16,-159"/>
<polygon fill="black" stroke="black" points="483.16,-162.5 493.16,-159 483.16,-155.5 483.16,-162.5"/>
</g>
<!-- PrismaModule -->
<g id="node6" class="node">
<title>PrismaModule</title>
<polygon fill="#8dd3c7" stroke="black" points="348.43,-122 345.43,-126 324.43,-126 321.43,-122 249.57,-122 249.57,-86 348.43,-86 348.43,-122"/>
<text text-anchor="middle" x="299" y="-99.8" font-family="Times,serif" font-size="14.00">PrismaModule</text>
</g>
<!-- PrismaModule&#45;&gt;AppModule -->
<g id="edge6" class="edge">
<title>PrismaModule&#45;&gt;AppModule</title>
<path fill="none" stroke="black" d="M299,-122.27C299,-140.56 299,-166 299,-166 299,-166 483.08,-166 483.08,-166"/>
<polygon fill="black" stroke="black" points="483.08,-169.5 493.08,-166 483.08,-162.5 483.08,-169.5"/>
</g>
<!-- TracksModule -->
<g id="node7" class="node">
<title>TracksModule</title>
<polygon fill="#8dd3c7" stroke="black" points="231.64,-122 228.64,-126 207.64,-126 204.64,-122 134.36,-122 134.36,-86 231.64,-86 231.64,-122"/>
<text text-anchor="middle" x="183" y="-99.8" font-family="Times,serif" font-size="14.00">TracksModule</text>
</g>
<!-- TracksModule&#45;&gt;AppModule -->
<g id="edge7" class="edge">
<title>TracksModule&#45;&gt;AppModule</title>
<path fill="none" stroke="black" d="M183,-122.13C183,-142.57 183,-173 183,-173 183,-173 483.24,-173 483.24,-173"/>
<polygon fill="black" stroke="black" points="483.24,-176.5 493.24,-173 483.24,-169.5 483.24,-176.5"/>
</g>
<!-- UsersModule -->
<g id="node8" class="node">
<title>UsersModule</title>
<polygon fill="#8dd3c7" stroke="black" points="115.92,-122 112.92,-126 91.92,-126 88.92,-122 24.08,-122 24.08,-86 115.92,-86 115.92,-122"/>
<text text-anchor="middle" x="70" y="-99.8" font-family="Times,serif" font-size="14.00">UsersModule</text>
</g>
<!-- UsersModule&#45;&gt;AppModule -->
<g id="edge8" class="edge">
<title>UsersModule&#45;&gt;AppModule</title>
<path fill="none" stroke="black" d="M70,-122.01C70,-144.49 70,-180 70,-180 70,-180 483.33,-180 483.33,-180"/>
<polygon fill="black" stroke="black" points="483.33,-183.5 493.33,-180 483.33,-176.5 483.33,-183.5"/>
</g>
<!-- AppService -->
<g id="node10" class="node">
<title>AppService</title>
<ellipse fill="#fdb462" stroke="black" cx="1001" cy="-104" rx="56.74" ry="18"/>
<text text-anchor="middle" x="1001" y="-99.8" font-family="Times,serif" font-size="14.00">AppService</text>
</g>
<!-- AppService&#45;&gt;AppModule -->
<g id="edge9" class="edge">
<title>AppService&#45;&gt;AppModule</title>
<path fill="none" stroke="black" d="M1001,-122.01C1001,-144.49 1001,-180 1001,-180 1001,-180 586.76,-180 586.76,-180"/>
<polygon fill="black" stroke="black" points="586.76,-176.5 576.76,-180 586.76,-183.5 586.76,-176.5"/>
</g>
</g>
</svg>
