<?xml version="1.0" encoding="UTF-8" standalone="no"?>
<!DOCTYPE svg PUBLIC "-//W3C//DTD SVG 1.1//EN"
 "http://www.w3.org/Graphics/SVG/1.1/DTD/svg11.dtd">
<!-- Generated by graphviz version 2.47.0 (20210316.0004)
 -->
<!-- Title: dependencies Pages: 1 -->
<svg width="847pt" height="211pt"
 viewBox="0.00 0.00 847.00 211.00" xmlns="http://www.w3.org/2000/svg" xmlns:xlink="http://www.w3.org/1999/xlink">
<g id="graph0" class="graph" transform="scale(1 1) rotate(0) translate(4 207)">
<title>dependencies</title>
<polygon fill="white" stroke="transparent" points="-4,4 -4,-207 843,-207 843,4 -4,4"/>
<text text-anchor="start" x="398.51" y="-42.4" font-family="Times-12" font-weight="bold" font-size="14.00">Legend</text>
<polygon fill="#ffffb3" stroke="transparent" points="185.5,-10 185.5,-30 205.5,-30 205.5,-10 185.5,-10"/>
<text text-anchor="start" x="209.13" y="-15.4" font-family="Times-12" font-size="14.00"> &#160;Declarations</text>
<polygon fill="#8dd3c7" stroke="transparent" points="298.5,-10 298.5,-30 318.5,-30 318.5,-10 298.5,-10"/>
<text text-anchor="start" x="322.23" y="-15.4" font-family="Times-12" font-size="14.00"> &#160;Module</text>
<polygon fill="#80b1d3" stroke="transparent" points="384.5,-10 384.5,-30 404.5,-30 404.5,-10 384.5,-10"/>
<text text-anchor="start" x="408.28" y="-15.4" font-family="Times-12" font-size="14.00"> &#160;Bootstrap</text>
<polygon fill="#fdb462" stroke="transparent" points="481.5,-10 481.5,-30 501.5,-30 501.5,-10 481.5,-10"/>
<text text-anchor="start" x="505.17" y="-15.4" font-family="Times-12" font-size="14.00"> &#160;Providers</text>
<polygon fill="#fb8072" stroke="transparent" points="577.5,-10 577.5,-30 597.5,-30 597.5,-10 577.5,-10"/>
<text text-anchor="start" x="601.23" y="-15.4" font-family="Times-12" font-size="14.00"> &#160;Exports</text>
<g id="clust1" class="cluster">
<title>cluster_AppModule</title>
<polygon fill="none" stroke="black" stroke-dasharray="1,5" points="8,-70 8,-195 831,-195 831,-70 8,-70"/>
</g>
<g id="clust3" class="cluster">
<title>cluster_AppModule_imports</title>
<polygon fill="none" stroke="black" points="16,-78 16,-130 823,-130 823,-78 16,-78"/>
</g>
<!-- AlbumsModule -->
<g id="node1" class="node">
<title>AlbumsModule</title>
<polygon fill="#8dd3c7" stroke="black" points="814.88,-122 811.88,-126 790.88,-126 787.88,-122 711.12,-122 711.12,-86 814.88,-86 814.88,-122"/>
<text text-anchor="middle" x="763" y="-99.8" font-family="Times,serif" font-size="14.00">AlbumsModule</text>
</g>
<!-- AppModule -->
<g id="node8" class="node">
<title>AppModule</title>
<polygon fill="#8dd3c7" stroke="black" points="461.66,-187 458.66,-191 437.66,-191 434.66,-187 378.34,-187 378.34,-151 461.66,-151 461.66,-187"/>
<text text-anchor="middle" x="420" y="-164.8" font-family="Times,serif" font-size="14.00">AppModule</text>
</g>
<!-- AlbumsModule&#45;&gt;AppModule -->
<g id="edge1" class="edge">
<title>AlbumsModule&#45;&gt;AppModule</title>
<path fill="none" stroke="black" d="M763,-122.29C763,-144.21 763,-178 763,-178 763,-178 471.72,-178 471.72,-178"/>
<polygon fill="black" stroke="black" points="471.72,-174.5 461.72,-178 471.72,-181.5 471.72,-174.5"/>
</g>
<!-- ArtistsModule -->
<g id="node2" class="node">
<title>ArtistsModule</title>
<polygon fill="#8dd3c7" stroke="black" points="693.38,-122 690.38,-126 669.38,-126 666.38,-122 596.62,-122 596.62,-86 693.38,-86 693.38,-122"/>
<text text-anchor="middle" x="645" y="-99.8" font-family="Times,serif" font-size="14.00">ArtistsModule</text>
</g>
<!-- ArtistsModule&#45;&gt;AppModule -->
<g id="edge2" class="edge">
<title>ArtistsModule&#45;&gt;AppModule</title>
<path fill="none" stroke="black" d="M645,-122.11C645,-141.34 645,-169 645,-169 645,-169 471.79,-169 471.79,-169"/>
<polygon fill="black" stroke="black" points="471.79,-165.5 461.79,-169 471.79,-172.5 471.79,-165.5"/>
</g>
<!-- AuthModule -->
<g id="node3" class="node">
<title>AuthModule</title>
<polygon fill="#8dd3c7" stroke="black" points="578.55,-122 575.55,-126 554.55,-126 551.55,-122 491.45,-122 491.45,-86 578.55,-86 578.55,-122"/>
<text text-anchor="middle" x="535" y="-99.8" font-family="Times,serif" font-size="14.00">AuthModule</text>
</g>
<!-- AuthModule&#45;&gt;AppModule -->
<g id="edge3" class="edge">
<title>AuthModule&#45;&gt;AppModule</title>
<path fill="none" stroke="black" d="M535,-122.03C535,-138.4 535,-160 535,-160 535,-160 471.84,-160 471.84,-160"/>
<polygon fill="black" stroke="black" points="471.84,-156.5 461.84,-160 471.84,-163.5 471.84,-156.5"/>
</g>
<!-- PlaylistsModule -->
<g id="node4" class="node">
<title>PlaylistsModule</title>
<polygon fill="#8dd3c7" stroke="black" points="473.5,-122 470.5,-126 449.5,-126 446.5,-122 366.5,-122 366.5,-86 473.5,-86 473.5,-122"/>
<text text-anchor="middle" x="420" y="-99.8" font-family="Times,serif" font-size="14.00">PlaylistsModule</text>
</g>
<!-- PlaylistsModule&#45;&gt;AppModule -->
<g id="edge4" class="edge">
<title>PlaylistsModule&#45;&gt;AppModule</title>
<path fill="none" stroke="black" d="M420,-122.11C420,-122.11 420,-140.99 420,-140.99"/>
<polygon fill="black" stroke="black" points="416.5,-140.99 420,-150.99 423.5,-140.99 416.5,-140.99"/>
</g>
<!-- PrismaModule -->
<g id="node5" class="node">
<title>PrismaModule</title>
<polygon fill="#8dd3c7" stroke="black" points="348.43,-122 345.43,-126 324.43,-126 321.43,-122 249.57,-122 249.57,-86 348.43,-86 348.43,-122"/>
<text text-anchor="middle" x="299" y="-99.8" font-family="Times,serif" font-size="14.00">PrismaModule</text>
</g>
<!-- PrismaModule&#45;&gt;AppModule -->
<g id="edge5" class="edge">
<title>PrismaModule&#45;&gt;AppModule</title>
<path fill="none" stroke="black" d="M299,-122.03C299,-138.4 299,-160 299,-160 299,-160 368.02,-160 368.02,-160"/>
<polygon fill="black" stroke="black" points="368.02,-163.5 378.02,-160 368.02,-156.5 368.02,-163.5"/>
</g>
<!-- TracksModule -->
<g id="node6" class="node">
<title>TracksModule</title>
<polygon fill="#8dd3c7" stroke="black" points="231.64,-122 228.64,-126 207.64,-126 204.64,-122 134.36,-122 134.36,-86 231.64,-86 231.64,-122"/>
<text text-anchor="middle" x="183" y="-99.8" font-family="Times,serif" font-size="14.00">TracksModule</text>
</g>
<!-- TracksModule&#45;&gt;AppModule -->
<g id="edge6" class="edge">
<title>TracksModule&#45;&gt;AppModule</title>
<path fill="none" stroke="black" d="M183,-122.11C183,-141.34 183,-169 183,-169 183,-169 368.17,-169 368.17,-169"/>
<polygon fill="black" stroke="black" points="368.17,-172.5 378.17,-169 368.17,-165.5 368.17,-172.5"/>
</g>
<!-- UsersModule -->
<g id="node7" class="node">
<title>UsersModule</title>
<polygon fill="#8dd3c7" stroke="black" points="115.92,-122 112.92,-126 91.92,-126 88.92,-122 24.08,-122 24.08,-86 115.92,-86 115.92,-122"/>
<text text-anchor="middle" x="70" y="-99.8" font-family="Times,serif" font-size="14.00">UsersModule</text>
</g>
<!-- UsersModule&#45;&gt;AppModule -->
<g id="edge7" class="edge">
<title>UsersModule&#45;&gt;AppModule</title>
<path fill="none" stroke="black" d="M70,-122.29C70,-144.21 70,-178 70,-178 70,-178 368.13,-178 368.13,-178"/>
<polygon fill="black" stroke="black" points="368.13,-181.5 378.13,-178 368.13,-174.5 368.13,-181.5"/>
</g>
</g>
</svg>
