<?xml version="1.0" encoding="UTF-8" standalone="no"?>
<!DOCTYPE svg PUBLIC "-//W3C//DTD SVG 1.1//EN"
 "http://www.w3.org/Graphics/SVG/1.1/DTD/svg11.dtd">
<!-- Generated by graphviz version 2.47.0 (20210316.0004)
 -->
<!-- Title: dependencies Pages: 1 -->
<svg width="504pt" height="284pt"
 viewBox="0.00 0.00 504.00 284.00" xmlns="http://www.w3.org/2000/svg" xmlns:xlink="http://www.w3.org/1999/xlink">
<g id="graph0" class="graph" transform="scale(1 1) rotate(0) translate(4 280)">
<title>dependencies</title>
<polygon fill="white" stroke="transparent" points="-4,4 -4,-280 500,-280 500,4 -4,4"/>
<text text-anchor="start" x="227.01" y="-42.4" font-family="Times-12" font-weight="bold" font-size="14.00">Legend</text>
<polygon fill="#ffffb3" stroke="transparent" points="14,-10 14,-30 34,-30 34,-10 14,-10"/>
<text text-anchor="start" x="37.63" y="-15.4" font-family="Times-12" font-size="14.00"> &#160;Declarations</text>
<polygon fill="#8dd3c7" stroke="transparent" points="127,-10 127,-30 147,-30 147,-10 127,-10"/>
<text text-anchor="start" x="150.73" y="-15.4" font-family="Times-12" font-size="14.00"> &#160;Module</text>
<polygon fill="#80b1d3" stroke="transparent" points="213,-10 213,-30 233,-30 233,-10 213,-10"/>
<text text-anchor="start" x="236.78" y="-15.4" font-family="Times-12" font-size="14.00"> &#160;Bootstrap</text>
<polygon fill="#fdb462" stroke="transparent" points="310,-10 310,-30 330,-30 330,-10 310,-10"/>
<text text-anchor="start" x="333.67" y="-15.4" font-family="Times-12" font-size="14.00"> &#160;Providers</text>
<polygon fill="#fb8072" stroke="transparent" points="406,-10 406,-30 426,-30 426,-10 406,-10"/>
<text text-anchor="start" x="429.73" y="-15.4" font-family="Times-12" font-size="14.00"> &#160;Exports</text>
<g id="clust1" class="cluster">
<title>cluster_TracksModule</title>
<polygon fill="none" stroke="black" stroke-dasharray="1,5" points="52,-70 52,-268 444,-268 444,-70 52,-70"/>
</g>
<g id="clust4" class="cluster">
<title>cluster_TracksModule_exports</title>
<polygon fill="none" stroke="black" points="147,-208 147,-260 385,-260 385,-208 147,-208"/>
</g>
<g id="clust3" class="cluster">
<title>cluster_TracksModule_imports</title>
<polygon fill="none" stroke="black" points="216,-78 216,-130 436,-130 436,-78 216,-78"/>
</g>
<g id="clust6" class="cluster">
<title>cluster_TracksModule_providers</title>
<polygon fill="none" stroke="black" points="60,-78 60,-130 208,-130 208,-78 60,-78"/>
</g>
<!-- AuthModule -->
<g id="node1" class="node">
<title>AuthModule</title>
<polygon fill="#8dd3c7" stroke="black" points="427.55,-122 424.55,-126 403.55,-126 400.55,-122 340.45,-122 340.45,-86 427.55,-86 427.55,-122"/>
<text text-anchor="middle" x="384" y="-99.8" font-family="Times,serif" font-size="14.00">AuthModule</text>
</g>
<!-- TracksModule -->
<g id="node3" class="node">
<title>TracksModule</title>
<polygon fill="#8dd3c7" stroke="black" points="321.64,-187 318.64,-191 297.64,-191 294.64,-187 224.36,-187 224.36,-151 321.64,-151 321.64,-187"/>
<text text-anchor="middle" x="273" y="-164.8" font-family="Times,serif" font-size="14.00">TracksModule</text>
</g>
<!-- AuthModule&#45;&gt;TracksModule -->
<g id="edge1" class="edge">
<title>AuthModule&#45;&gt;TracksModule</title>
<path fill="none" stroke="black" d="M358.67,-122.11C358.67,-141.34 358.67,-169 358.67,-169 358.67,-169 331.84,-169 331.84,-169"/>
<polygon fill="black" stroke="black" points="331.84,-165.5 321.84,-169 331.84,-172.5 331.84,-165.5"/>
</g>
<!-- PrismaModule -->
<g id="node2" class="node">
<title>PrismaModule</title>
<polygon fill="#8dd3c7" stroke="black" points="322.43,-122 319.43,-126 298.43,-126 295.43,-122 223.57,-122 223.57,-86 322.43,-86 322.43,-122"/>
<text text-anchor="middle" x="273" y="-99.8" font-family="Times,serif" font-size="14.00">PrismaModule</text>
</g>
<!-- PrismaModule&#45;&gt;TracksModule -->
<g id="edge2" class="edge">
<title>PrismaModule&#45;&gt;TracksModule</title>
<path fill="none" stroke="black" d="M273,-122.11C273,-122.11 273,-140.99 273,-140.99"/>
<polygon fill="black" stroke="black" points="269.5,-140.99 273,-150.99 276.5,-140.99 269.5,-140.99"/>
</g>
<!-- AudioGateway  -->
<g id="node4" class="node">
<title>AudioGateway </title>
<polygon fill="#fb8072" stroke="black" points="377.25,-252 272.75,-252 272.75,-216 377.25,-216 377.25,-252"/>
<text text-anchor="middle" x="325" y="-229.8" font-family="Times,serif" font-size="14.00">AudioGateway </text>
</g>
<!-- TracksModule&#45;&gt;AudioGateway  -->
<g id="edge3" class="edge">
<title>TracksModule&#45;&gt;AudioGateway </title>
<path fill="none" stroke="black" stroke-dasharray="5,2" d="M297.35,-187.11C297.35,-187.11 297.35,-205.99 297.35,-205.99"/>
<polygon fill="black" stroke="black" points="293.85,-205.99 297.35,-215.99 300.85,-205.99 293.85,-205.99"/>
</g>
<!-- TracksService  -->
<g id="node5" class="node">
<title>TracksService </title>
<polygon fill="#fb8072" stroke="black" points="254.57,-252 155.43,-252 155.43,-216 254.57,-216 254.57,-252"/>
<text text-anchor="middle" x="205" y="-229.8" font-family="Times,serif" font-size="14.00">TracksService </text>
</g>
<!-- TracksModule&#45;&gt;TracksService  -->
<g id="edge4" class="edge">
<title>TracksModule&#45;&gt;TracksService </title>
<path fill="none" stroke="black" stroke-dasharray="5,2" d="M239.48,-187.11C239.48,-187.11 239.48,-205.99 239.48,-205.99"/>
<polygon fill="black" stroke="black" points="235.98,-205.99 239.48,-215.99 242.98,-205.99 235.98,-205.99"/>
</g>
<!-- TracksService -->
<g id="node6" class="node">
<title>TracksService</title>
<ellipse fill="#fdb462" stroke="black" cx="134" cy="-104" rx="66.03" ry="18"/>
<text text-anchor="middle" x="134" y="-99.8" font-family="Times,serif" font-size="14.00">TracksService</text>
</g>
<!-- TracksService&#45;&gt;TracksModule -->
<g id="edge5" class="edge">
<title>TracksService&#45;&gt;TracksModule</title>
<path fill="none" stroke="black" d="M177.74,-117.78C177.74,-136.86 177.74,-169 177.74,-169 177.74,-169 214.25,-169 214.25,-169"/>
<polygon fill="black" stroke="black" points="214.25,-172.5 224.25,-169 214.25,-165.5 214.25,-172.5"/>
</g>
</g>
</svg>
