<?xml version="1.0" encoding="UTF-8" standalone="no"?>
<!DOCTYPE svg PUBLIC "-//W3C//DTD SVG 1.1//EN"
 "http://www.w3.org/Graphics/SVG/1.1/DTD/svg11.dtd">
<!-- Generated by graphviz version 2.47.0 (20210316.0004)
 -->
<!-- Title: dependencies Pages: 1 -->
<svg width="554pt" height="284pt"
 viewBox="0.00 0.00 554.00 284.00" xmlns="http://www.w3.org/2000/svg" xmlns:xlink="http://www.w3.org/1999/xlink">
<g id="graph0" class="graph" transform="scale(1 1) rotate(0) translate(4 280)">
<title>dependencies</title>
<polygon fill="white" stroke="transparent" points="-4,4 -4,-280 550,-280 550,4 -4,4"/>
<text text-anchor="start" x="252.01" y="-42.4" font-family="Times-12" font-weight="bold" font-size="14.00">Legend</text>
<polygon fill="#ffffb3" stroke="transparent" points="39,-10 39,-30 59,-30 59,-10 39,-10"/>
<text text-anchor="start" x="62.63" y="-15.4" font-family="Times-12" font-size="14.00"> &#160;Declarations</text>
<polygon fill="#8dd3c7" stroke="transparent" points="152,-10 152,-30 172,-30 172,-10 152,-10"/>
<text text-anchor="start" x="175.73" y="-15.4" font-family="Times-12" font-size="14.00"> &#160;Module</text>
<polygon fill="#80b1d3" stroke="transparent" points="238,-10 238,-30 258,-30 258,-10 238,-10"/>
<text text-anchor="start" x="261.78" y="-15.4" font-family="Times-12" font-size="14.00"> &#160;Bootstrap</text>
<polygon fill="#fdb462" stroke="transparent" points="335,-10 335,-30 355,-30 355,-10 335,-10"/>
<text text-anchor="start" x="358.67" y="-15.4" font-family="Times-12" font-size="14.00"> &#160;Providers</text>
<polygon fill="#fb8072" stroke="transparent" points="431,-10 431,-30 451,-30 451,-10 431,-10"/>
<text text-anchor="start" x="454.73" y="-15.4" font-family="Times-12" font-size="14.00"> &#160;Exports</text>
<g id="clust1" class="cluster">
<title>cluster_AuthModule</title>
<polygon fill="none" stroke="black" stroke-dasharray="1,5" points="8,-70 8,-268 538,-268 538,-70 8,-70"/>
</g>
<g id="clust3" class="cluster">
<title>cluster_AuthModule_imports</title>
<polygon fill="none" stroke="black" points="306,-78 306,-130 530,-130 530,-78 306,-78"/>
</g>
<g id="clust6" class="cluster">
<title>cluster_AuthModule_providers</title>
<polygon fill="none" stroke="black" points="16,-78 16,-130 298,-130 298,-78 16,-78"/>
</g>
<g id="clust4" class="cluster">
<title>cluster_AuthModule_exports</title>
<polygon fill="none" stroke="black" points="183,-208 183,-260 404,-260 404,-208 183,-208"/>
</g>
<!-- PrismaModule -->
<g id="node1" class="node">
<title>PrismaModule</title>
<polygon fill="#8dd3c7" stroke="black" points="522.43,-122 519.43,-126 498.43,-126 495.43,-122 423.57,-122 423.57,-86 522.43,-86 522.43,-122"/>
<text text-anchor="middle" x="473" y="-99.8" font-family="Times,serif" font-size="14.00">PrismaModule</text>
</g>
<!-- AuthModule -->
<g id="node3" class="node">
<title>AuthModule</title>
<polygon fill="#8dd3c7" stroke="black" points="338.55,-187 335.55,-191 314.55,-191 311.55,-187 251.45,-187 251.45,-151 338.55,-151 338.55,-187"/>
<text text-anchor="middle" x="295" y="-164.8" font-family="Times,serif" font-size="14.00">AuthModule</text>
</g>
<!-- PrismaModule&#45;&gt;AuthModule -->
<g id="edge1" class="edge">
<title>PrismaModule&#45;&gt;AuthModule</title>
<path fill="none" stroke="black" d="M473,-122.11C473,-141.34 473,-169 473,-169 473,-169 349,-169 349,-169"/>
<polygon fill="black" stroke="black" points="349,-165.5 339,-169 349,-172.5 349,-165.5"/>
</g>
<!-- UsersModule -->
<g id="node2" class="node">
<title>UsersModule</title>
<polygon fill="#8dd3c7" stroke="black" points="405.92,-122 402.92,-126 381.92,-126 378.92,-122 314.08,-122 314.08,-86 405.92,-86 405.92,-122"/>
<text text-anchor="middle" x="360" y="-99.8" font-family="Times,serif" font-size="14.00">UsersModule</text>
</g>
<!-- UsersModule&#45;&gt;AuthModule -->
<g id="edge2" class="edge">
<title>UsersModule&#45;&gt;AuthModule</title>
<path fill="none" stroke="black" d="M326.53,-122.11C326.53,-122.11 326.53,-140.99 326.53,-140.99"/>
<polygon fill="black" stroke="black" points="323.03,-140.99 326.53,-150.99 330.03,-140.99 323.03,-140.99"/>
</g>
<!-- AuthService  -->
<g id="node4" class="node">
<title>AuthService </title>
<polygon fill="#fb8072" stroke="black" points="395.98,-252 306.02,-252 306.02,-216 395.98,-216 395.98,-252"/>
<text text-anchor="middle" x="351" y="-229.8" font-family="Times,serif" font-size="14.00">AuthService </text>
</g>
<!-- AuthModule&#45;&gt;AuthService  -->
<g id="edge3" class="edge">
<title>AuthModule&#45;&gt;AuthService </title>
<path fill="none" stroke="black" stroke-dasharray="5,2" d="M322.52,-187.11C322.52,-187.11 322.52,-205.99 322.52,-205.99"/>
<polygon fill="black" stroke="black" points="319.02,-205.99 322.52,-215.99 326.02,-205.99 319.02,-205.99"/>
</g>
<!-- TokenService  -->
<g id="node5" class="node">
<title>TokenService </title>
<polygon fill="#fb8072" stroke="black" points="288.75,-252 191.25,-252 191.25,-216 288.75,-216 288.75,-252"/>
<text text-anchor="middle" x="240" y="-229.8" font-family="Times,serif" font-size="14.00">TokenService </text>
</g>
<!-- AuthModule&#45;&gt;TokenService  -->
<g id="edge4" class="edge">
<title>AuthModule&#45;&gt;TokenService </title>
<path fill="none" stroke="black" stroke-dasharray="5,2" d="M269.92,-187.11C269.92,-187.11 269.92,-205.99 269.92,-205.99"/>
<polygon fill="black" stroke="black" points="266.42,-205.99 269.92,-215.99 273.42,-205.99 266.42,-205.99"/>
</g>
<!-- AuthService -->
<g id="node6" class="node">
<title>AuthService</title>
<ellipse fill="#fdb462" stroke="black" cx="231" cy="-104" rx="59.11" ry="18"/>
<text text-anchor="middle" x="231" y="-99.8" font-family="Times,serif" font-size="14.00">AuthService</text>
</g>
<!-- AuthService&#45;&gt;AuthModule -->
<g id="edge5" class="edge">
<title>AuthService&#45;&gt;AuthModule</title>
<path fill="none" stroke="black" d="M270.77,-117.47C270.77,-117.47 270.77,-140.86 270.77,-140.86"/>
<polygon fill="black" stroke="black" points="267.27,-140.86 270.77,-150.86 274.27,-140.86 267.27,-140.86"/>
</g>
<!-- TokenService -->
<g id="node7" class="node">
<title>TokenService</title>
<ellipse fill="#fdb462" stroke="black" cx="89" cy="-104" rx="64.83" ry="18"/>
<text text-anchor="middle" x="89" y="-99.8" font-family="Times,serif" font-size="14.00">TokenService</text>
</g>
<!-- TokenService&#45;&gt;AuthModule -->
<g id="edge6" class="edge">
<title>TokenService&#45;&gt;AuthModule</title>
<path fill="none" stroke="black" d="M89,-122.11C89,-141.34 89,-169 89,-169 89,-169 241.31,-169 241.31,-169"/>
<polygon fill="black" stroke="black" points="241.31,-172.5 251.31,-169 241.31,-165.5 241.31,-172.5"/>
</g>
</g>
</svg>
