<?xml version="1.0" encoding="UTF-8" standalone="no"?>
<!DOCTYPE svg PUBLIC "-//W3C//DTD SVG 1.1//EN"
 "http://www.w3.org/Graphics/SVG/1.1/DTD/svg11.dtd">
<!-- Generated by graphviz version 2.47.0 (20210316.0004)
 -->
<!-- Title: dependencies Pages: 1 -->
<svg width="504pt" height="284pt"
 viewBox="0.00 0.00 504.00 284.00" xmlns="http://www.w3.org/2000/svg" xmlns:xlink="http://www.w3.org/1999/xlink">
<g id="graph0" class="graph" transform="scale(1 1) rotate(0) translate(4 280)">
<title>dependencies</title>
<polygon fill="white" stroke="transparent" points="-4,4 -4,-280 500,-280 500,4 -4,4"/>
<text text-anchor="start" x="227.01" y="-42.4" font-family="Times-12" font-weight="bold" font-size="14.00">Legend</text>
<polygon fill="#ffffb3" stroke="transparent" points="14,-10 14,-30 34,-30 34,-10 14,-10"/>
<text text-anchor="start" x="37.63" y="-15.4" font-family="Times-12" font-size="14.00"> &#160;Declarations</text>
<polygon fill="#8dd3c7" stroke="transparent" points="127,-10 127,-30 147,-30 147,-10 127,-10"/>
<text text-anchor="start" x="150.73" y="-15.4" font-family="Times-12" font-size="14.00"> &#160;Module</text>
<polygon fill="#80b1d3" stroke="transparent" points="213,-10 213,-30 233,-30 233,-10 213,-10"/>
<text text-anchor="start" x="236.78" y="-15.4" font-family="Times-12" font-size="14.00"> &#160;Bootstrap</text>
<polygon fill="#fdb462" stroke="transparent" points="310,-10 310,-30 330,-30 330,-10 310,-10"/>
<text text-anchor="start" x="333.67" y="-15.4" font-family="Times-12" font-size="14.00"> &#160;Providers</text>
<polygon fill="#fb8072" stroke="transparent" points="406,-10 406,-30 426,-30 426,-10 406,-10"/>
<text text-anchor="start" x="429.73" y="-15.4" font-family="Times-12" font-size="14.00"> &#160;Exports</text>
<g id="clust1" class="cluster">
<title>cluster_PlaylistsModule</title>
<polygon fill="none" stroke="black" stroke-dasharray="1,5" points="45,-70 45,-268 451,-268 451,-70 45,-70"/>
</g>
<g id="clust3" class="cluster">
<title>cluster_PlaylistsModule_imports</title>
<polygon fill="none" stroke="black" points="223,-78 223,-130 443,-130 443,-78 223,-78"/>
</g>
<g id="clust4" class="cluster">
<title>cluster_PlaylistsModule_exports</title>
<polygon fill="none" stroke="black" points="218,-208 218,-260 342,-260 342,-208 218,-208"/>
</g>
<g id="clust6" class="cluster">
<title>cluster_PlaylistsModule_providers</title>
<polygon fill="none" stroke="black" points="53,-78 53,-130 215,-130 215,-78 53,-78"/>
</g>
<!-- AuthModule -->
<g id="node1" class="node">
<title>AuthModule</title>
<polygon fill="#8dd3c7" stroke="black" points="434.55,-122 431.55,-126 410.55,-126 407.55,-122 347.45,-122 347.45,-86 434.55,-86 434.55,-122"/>
<text text-anchor="middle" x="391" y="-99.8" font-family="Times,serif" font-size="14.00">AuthModule</text>
</g>
<!-- PlaylistsModule -->
<g id="node3" class="node">
<title>PlaylistsModule</title>
<polygon fill="#8dd3c7" stroke="black" points="333.5,-187 330.5,-191 309.5,-191 306.5,-187 226.5,-187 226.5,-151 333.5,-151 333.5,-187"/>
<text text-anchor="middle" x="280" y="-164.8" font-family="Times,serif" font-size="14.00">PlaylistsModule</text>
</g>
<!-- AuthModule&#45;&gt;PlaylistsModule -->
<g id="edge1" class="edge">
<title>AuthModule&#45;&gt;PlaylistsModule</title>
<path fill="none" stroke="black" d="M391,-122.11C391,-141.34 391,-169 391,-169 391,-169 343.55,-169 343.55,-169"/>
<polygon fill="black" stroke="black" points="343.55,-165.5 333.55,-169 343.55,-172.5 343.55,-165.5"/>
</g>
<!-- PrismaModule -->
<g id="node2" class="node">
<title>PrismaModule</title>
<polygon fill="#8dd3c7" stroke="black" points="329.43,-122 326.43,-126 305.43,-126 302.43,-122 230.57,-122 230.57,-86 329.43,-86 329.43,-122"/>
<text text-anchor="middle" x="280" y="-99.8" font-family="Times,serif" font-size="14.00">PrismaModule</text>
</g>
<!-- PrismaModule&#45;&gt;PlaylistsModule -->
<g id="edge2" class="edge">
<title>PrismaModule&#45;&gt;PlaylistsModule</title>
<path fill="none" stroke="black" d="M280,-122.11C280,-122.11 280,-140.99 280,-140.99"/>
<polygon fill="black" stroke="black" points="276.5,-140.99 280,-150.99 283.5,-140.99 276.5,-140.99"/>
</g>
<!-- PlaylistsService  -->
<g id="node4" class="node">
<title>PlaylistsService </title>
<polygon fill="#fb8072" stroke="black" points="334.43,-252 225.57,-252 225.57,-216 334.43,-216 334.43,-252"/>
<text text-anchor="middle" x="280" y="-229.8" font-family="Times,serif" font-size="14.00">PlaylistsService </text>
</g>
<!-- PlaylistsModule&#45;&gt;PlaylistsService  -->
<g id="edge3" class="edge">
<title>PlaylistsModule&#45;&gt;PlaylistsService </title>
<path fill="none" stroke="black" stroke-dasharray="5,2" d="M280,-187.11C280,-187.11 280,-205.99 280,-205.99"/>
<polygon fill="black" stroke="black" points="276.5,-205.99 280,-215.99 283.5,-205.99 276.5,-205.99"/>
</g>
<!-- PlaylistsService -->
<g id="node5" class="node">
<title>PlaylistsService</title>
<ellipse fill="#fdb462" stroke="black" cx="134" cy="-104" rx="72.94" ry="18"/>
<text text-anchor="middle" x="134" y="-99.8" font-family="Times,serif" font-size="14.00">PlaylistsService</text>
</g>
<!-- PlaylistsService&#45;&gt;PlaylistsModule -->
<g id="edge4" class="edge">
<title>PlaylistsService&#45;&gt;PlaylistsModule</title>
<path fill="none" stroke="black" d="M134,-122.11C134,-141.34 134,-169 134,-169 134,-169 216.46,-169 216.46,-169"/>
<polygon fill="black" stroke="black" points="216.46,-172.5 226.46,-169 216.46,-165.5 216.46,-172.5"/>
</g>
</g>
</svg>
