<?xml version="1.0" encoding="UTF-8" standalone="no"?>
<!DOCTYPE svg PUBLIC "-//W3C//DTD SVG 1.1//EN"
 "http://www.w3.org/Graphics/SVG/1.1/DTD/svg11.dtd">
<!-- Generated by graphviz version 2.47.0 (20210316.0004)
 -->
<!-- Title: dependencies Pages: 1 -->
<svg width="504pt" height="284pt"
 viewBox="0.00 0.00 504.00 284.00" xmlns="http://www.w3.org/2000/svg" xmlns:xlink="http://www.w3.org/1999/xlink">
<g id="graph0" class="graph" transform="scale(1 1) rotate(0) translate(4 280)">
<title>dependencies</title>
<polygon fill="white" stroke="transparent" points="-4,4 -4,-280 500,-280 500,4 -4,4"/>
<text text-anchor="start" x="227.01" y="-42.4" font-family="Times-12" font-weight="bold" font-size="14.00">Legend</text>
<polygon fill="#ffffb3" stroke="transparent" points="14,-10 14,-30 34,-30 34,-10 14,-10"/>
<text text-anchor="start" x="37.63" y="-15.4" font-family="Times-12" font-size="14.00"> &#160;Declarations</text>
<polygon fill="#8dd3c7" stroke="transparent" points="127,-10 127,-30 147,-30 147,-10 127,-10"/>
<text text-anchor="start" x="150.73" y="-15.4" font-family="Times-12" font-size="14.00"> &#160;Module</text>
<polygon fill="#80b1d3" stroke="transparent" points="213,-10 213,-30 233,-30 233,-10 213,-10"/>
<text text-anchor="start" x="236.78" y="-15.4" font-family="Times-12" font-size="14.00"> &#160;Bootstrap</text>
<polygon fill="#fdb462" stroke="transparent" points="310,-10 310,-30 330,-30 330,-10 310,-10"/>
<text text-anchor="start" x="333.67" y="-15.4" font-family="Times-12" font-size="14.00"> &#160;Providers</text>
<polygon fill="#fb8072" stroke="transparent" points="406,-10 406,-30 426,-30 426,-10 406,-10"/>
<text text-anchor="start" x="429.73" y="-15.4" font-family="Times-12" font-size="14.00"> &#160;Exports</text>
<g id="clust1" class="cluster">
<title>cluster_PlaylistsModule</title>
<polygon fill="none" stroke="black" stroke-dasharray="1,5" points="45,-70 45,-268 451,-268 451,-70 45,-70"/>
</g>
<g id="clust4" class="cluster">
<title>cluster_PlaylistsModule_exports</title>
<polygon fill="none" stroke="black" points="159,-208 159,-260 283,-260 283,-208 159,-208"/>
</g>
<g id="clust6" class="cluster">
<title>cluster_PlaylistsModule_providers</title>
<polygon fill="none" stroke="black" points="281,-78 281,-130 443,-130 443,-78 281,-78"/>
</g>
<g id="clust3" class="cluster">
<title>cluster_PlaylistsModule_imports</title>
<polygon fill="none" stroke="black" points="53,-78 53,-130 273,-130 273,-78 53,-78"/>
</g>
<!-- AuthModule -->
<g id="node1" class="node">
<title>AuthModule</title>
<polygon fill="#8dd3c7" stroke="black" points="264.55,-122 261.55,-126 240.55,-126 237.55,-122 177.45,-122 177.45,-86 264.55,-86 264.55,-122"/>
<text text-anchor="middle" x="221" y="-99.8" font-family="Times,serif" font-size="14.00">AuthModule</text>
</g>
<!-- PlaylistsModule -->
<g id="node3" class="node">
<title>PlaylistsModule</title>
<polygon fill="#8dd3c7" stroke="black" points="274.5,-187 271.5,-191 250.5,-191 247.5,-187 167.5,-187 167.5,-151 274.5,-151 274.5,-187"/>
<text text-anchor="middle" x="221" y="-164.8" font-family="Times,serif" font-size="14.00">PlaylistsModule</text>
</g>
<!-- AuthModule&#45;&gt;PlaylistsModule -->
<g id="edge1" class="edge">
<title>AuthModule&#45;&gt;PlaylistsModule</title>
<path fill="none" stroke="black" d="M221,-122.11C221,-122.11 221,-140.99 221,-140.99"/>
<polygon fill="black" stroke="black" points="217.5,-140.99 221,-150.99 224.5,-140.99 217.5,-140.99"/>
</g>
<!-- PrismaModule -->
<g id="node2" class="node">
<title>PrismaModule</title>
<polygon fill="#8dd3c7" stroke="black" points="159.43,-122 156.43,-126 135.43,-126 132.43,-122 60.57,-122 60.57,-86 159.43,-86 159.43,-122"/>
<text text-anchor="middle" x="110" y="-99.8" font-family="Times,serif" font-size="14.00">PrismaModule</text>
</g>
<!-- PrismaModule&#45;&gt;PlaylistsModule -->
<g id="edge2" class="edge">
<title>PrismaModule&#45;&gt;PlaylistsModule</title>
<path fill="none" stroke="black" d="M159.44,-104C167.01,-104 172.36,-104 172.36,-104 172.36,-104 172.36,-140.89 172.36,-140.89"/>
<polygon fill="black" stroke="black" points="168.86,-140.89 172.36,-150.89 175.86,-140.89 168.86,-140.89"/>
</g>
<!-- PlaylistsService  -->
<g id="node4" class="node">
<title>PlaylistsService </title>
<polygon fill="#fb8072" stroke="black" points="275.43,-252 166.57,-252 166.57,-216 275.43,-216 275.43,-252"/>
<text text-anchor="middle" x="221" y="-229.8" font-family="Times,serif" font-size="14.00">PlaylistsService </text>
</g>
<!-- PlaylistsModule&#45;&gt;PlaylistsService  -->
<g id="edge3" class="edge">
<title>PlaylistsModule&#45;&gt;PlaylistsService </title>
<path fill="none" stroke="black" stroke-dasharray="5,2" d="M221,-187.11C221,-187.11 221,-205.99 221,-205.99"/>
<polygon fill="black" stroke="black" points="217.5,-205.99 221,-215.99 224.5,-205.99 217.5,-205.99"/>
</g>
<!-- PlaylistsService -->
<g id="node5" class="node">
<title>PlaylistsService</title>
<ellipse fill="#fdb462" stroke="black" cx="362" cy="-104" rx="72.94" ry="18"/>
<text text-anchor="middle" x="362" y="-99.8" font-family="Times,serif" font-size="14.00">PlaylistsService</text>
</g>
<!-- PlaylistsService&#45;&gt;PlaylistsModule -->
<g id="edge4" class="edge">
<title>PlaylistsService&#45;&gt;PlaylistsModule</title>
<path fill="none" stroke="black" d="M289.22,-104C277.78,-104 269.64,-104 269.64,-104 269.64,-104 269.64,-140.89 269.64,-140.89"/>
<polygon fill="black" stroke="black" points="266.14,-140.89 269.64,-150.89 273.14,-140.89 266.14,-140.89"/>
</g>
</g>
</svg>
