<?xml version="1.0" encoding="UTF-8" standalone="no"?>
<!DOCTYPE svg PUBLIC "-//W3C//DTD SVG 1.1//EN"
 "http://www.w3.org/Graphics/SVG/1.1/DTD/svg11.dtd">
<!-- Generated by graphviz version 2.47.0 (20210316.0004)
 -->
<!-- Title: dependencies Pages: 1 -->
<svg width="1764pt" height="371pt"
 viewBox="0.00 0.00 1764.00 371.00" xmlns="http://www.w3.org/2000/svg" xmlns:xlink="http://www.w3.org/1999/xlink">
<g id="graph0" class="graph" transform="scale(1 1) rotate(0) translate(4 367)">
<title>dependencies</title>
<polygon fill="white" stroke="transparent" points="-4,4 -4,-367 1760,-367 1760,4 -4,4"/>
<text text-anchor="start" x="857.01" y="-42.4" font-family="Times-12" font-weight="bold" font-size="14.00">Legend</text>
<polygon fill="#ffffb3" stroke="transparent" points="644,-10 644,-30 664,-30 664,-10 644,-10"/>
<text text-anchor="start" x="667.63" y="-15.4" font-family="Times-12" font-size="14.00"> &#160;Declarations</text>
<polygon fill="#8dd3c7" stroke="transparent" points="757,-10 757,-30 777,-30 777,-10 757,-10"/>
<text text-anchor="start" x="780.73" y="-15.4" font-family="Times-12" font-size="14.00"> &#160;Module</text>
<polygon fill="#80b1d3" stroke="transparent" points="843,-10 843,-30 863,-30 863,-10 843,-10"/>
<text text-anchor="start" x="866.78" y="-15.4" font-family="Times-12" font-size="14.00"> &#160;Bootstrap</text>
<polygon fill="#fdb462" stroke="transparent" points="940,-10 940,-30 960,-30 960,-10 940,-10"/>
<text text-anchor="start" x="963.67" y="-15.4" font-family="Times-12" font-size="14.00"> &#160;Providers</text>
<polygon fill="#fb8072" stroke="transparent" points="1036,-10 1036,-30 1056,-30 1056,-10 1036,-10"/>
<text text-anchor="start" x="1059.73" y="-15.4" font-family="Times-12" font-size="14.00"> &#160;Exports</text>
<g id="clust1" class="cluster">
<title>cluster_AlbumsModule</title>
<polygon fill="none" stroke="black" stroke-dasharray="1,5" points="1448,-70 1448,-355 1748,-355 1748,-70 1448,-70"/>
</g>
<g id="clust3" class="cluster">
<title>cluster_AlbumsModule_imports</title>
<polygon fill="none" stroke="black" points="1456,-78 1456,-195 1570,-195 1570,-78 1456,-78"/>
</g>
<g id="clust4" class="cluster">
<title>cluster_AlbumsModule_exports</title>
<polygon fill="none" stroke="black" points="1501,-295 1501,-347 1623,-347 1623,-295 1501,-295"/>
</g>
<g id="clust6" class="cluster">
<title>cluster_AlbumsModule_providers</title>
<polygon fill="none" stroke="black" points="1582,-143 1582,-195 1740,-195 1740,-143 1582,-143"/>
</g>
<g id="clust7" class="cluster">
<title>cluster_AppModule</title>
<polygon fill="none" stroke="black" stroke-dasharray="1,5" points="426,-211 426,-347 905,-347 905,-211 426,-211"/>
</g>
<g id="clust9" class="cluster">
<title>cluster_AppModule_imports</title>
<polygon fill="none" stroke="black" points="434,-219 434,-271 897,-271 897,-219 434,-219"/>
</g>
<g id="clust13" class="cluster">
<title>cluster_ArtistsModule</title>
<polygon fill="none" stroke="black" stroke-dasharray="1,5" points="256,-135 256,-203 542,-203 542,-135 256,-135"/>
</g>
<g id="clust16" class="cluster">
<title>cluster_ArtistsModule_exports</title>
<polygon fill="none" stroke="black" points="420,-143 420,-195 534,-195 534,-143 420,-143"/>
</g>
<g id="clust18" class="cluster">
<title>cluster_ArtistsModule_providers</title>
<polygon fill="none" stroke="black" points="264,-143 264,-195 412,-195 412,-143 264,-143"/>
</g>
<g id="clust19" class="cluster">
<title>cluster_AuthModule</title>
<polygon fill="none" stroke="black" stroke-dasharray="1,5" points="913,-211 913,-279 1440,-279 1440,-211 913,-211"/>
</g>
<g id="clust22" class="cluster">
<title>cluster_AuthModule_exports</title>
<polygon fill="none" stroke="black" points="1211,-219 1211,-271 1432,-271 1432,-219 1211,-219"/>
</g>
<g id="clust24" class="cluster">
<title>cluster_AuthModule_providers</title>
<polygon fill="none" stroke="black" points="921,-219 921,-271 1203,-271 1203,-219 921,-219"/>
</g>
<g id="clust25" class="cluster">
<title>cluster_PlaylistsModule</title>
<polygon fill="none" stroke="black" stroke-dasharray="1,5" points="550,-135 550,-203 860,-203 860,-135 550,-135"/>
</g>
<g id="clust28" class="cluster">
<title>cluster_PlaylistsModule_exports</title>
<polygon fill="none" stroke="black" points="728,-143 728,-195 852,-195 852,-143 728,-143"/>
</g>
<g id="clust30" class="cluster">
<title>cluster_PlaylistsModule_providers</title>
<polygon fill="none" stroke="black" points="558,-143 558,-195 720,-195 720,-143 558,-143"/>
</g>
<g id="clust31" class="cluster">
<title>cluster_PrismaModule</title>
<polygon fill="none" stroke="black" stroke-dasharray="1,5" points="1150,-135 1150,-203 1440,-203 1440,-135 1150,-135"/>
</g>
<g id="clust34" class="cluster">
<title>cluster_PrismaModule_exports</title>
<polygon fill="none" stroke="black" points="1316,-143 1316,-195 1432,-195 1432,-143 1316,-143"/>
</g>
<g id="clust36" class="cluster">
<title>cluster_PrismaModule_providers</title>
<polygon fill="none" stroke="black" points="1158,-143 1158,-195 1308,-195 1308,-143 1158,-143"/>
</g>
<g id="clust37" class="cluster">
<title>cluster_TracksModule</title>
<polygon fill="none" stroke="black" stroke-dasharray="1,5" points="8,-287 8,-355 418,-355 418,-287 8,-287"/>
</g>
<g id="clust40" class="cluster">
<title>cluster_TracksModule_exports</title>
<polygon fill="none" stroke="black" points="172,-295 172,-347 410,-347 410,-295 172,-295"/>
</g>
<g id="clust42" class="cluster">
<title>cluster_TracksModule_providers</title>
<polygon fill="none" stroke="black" points="16,-295 16,-347 164,-347 164,-295 16,-295"/>
</g>
<g id="clust43" class="cluster">
<title>cluster_UsersModule</title>
<polygon fill="none" stroke="black" stroke-dasharray="1,5" points="868,-135 868,-203 1142,-203 1142,-135 868,-135"/>
</g>
<g id="clust46" class="cluster">
<title>cluster_UsersModule_exports</title>
<polygon fill="none" stroke="black" points="1024,-143 1024,-195 1134,-195 1134,-143 1024,-143"/>
</g>
<g id="clust48" class="cluster">
<title>cluster_UsersModule_providers</title>
<polygon fill="none" stroke="black" points="876,-143 876,-195 1016,-195 1016,-143 876,-143"/>
</g>
<!-- AuthModule -->
<g id="node1" class="node">
<title>AuthModule</title>
<polygon fill="#8dd3c7" stroke="black" points="1551.55,-187 1548.55,-191 1527.55,-191 1524.55,-187 1464.45,-187 1464.45,-151 1551.55,-151 1551.55,-187"/>
<text text-anchor="middle" x="1508" y="-164.8" font-family="Times,serif" font-size="14.00">AuthModule</text>
</g>
<!-- AlbumsModule -->
<g id="node3" class="node">
<title>AlbumsModule</title>
<polygon fill="#8dd3c7" stroke="black" points="1613.88,-263 1610.88,-267 1589.88,-267 1586.88,-263 1510.12,-263 1510.12,-227 1613.88,-227 1613.88,-263"/>
<text text-anchor="middle" x="1562" y="-240.8" font-family="Times,serif" font-size="14.00">AlbumsModule</text>
</g>
<!-- AuthModule&#45;&gt;AlbumsModule -->
<g id="edge1" class="edge">
<title>AuthModule&#45;&gt;AlbumsModule</title>
<path fill="none" stroke="black" d="M1530.92,-187.01C1530.92,-187.01 1530.92,-216.85 1530.92,-216.85"/>
<polygon fill="black" stroke="black" points="1527.42,-216.85 1530.92,-226.85 1534.42,-216.85 1527.42,-216.85"/>
</g>
<!-- ArtistsModule -->
<g id="node6" class="node">
<title>ArtistsModule</title>
<polygon fill="#8dd3c7" stroke="black" points="654.38,-263 651.38,-267 630.38,-267 627.38,-263 557.62,-263 557.62,-227 654.38,-227 654.38,-263"/>
<text text-anchor="middle" x="606" y="-240.8" font-family="Times,serif" font-size="14.00">ArtistsModule</text>
</g>
<!-- AuthModule&#45;&gt;ArtistsModule -->
<g id="edge12" class="edge">
<title>AuthModule&#45;&gt;ArtistsModule</title>
<path fill="none" stroke="black" d="M1473.2,-187.06C1473.2,-191.49 1473.2,-195 1473.2,-195 1473.2,-195 610.36,-195 610.36,-195 610.36,-195 610.36,-216.95 610.36,-216.95"/>
<polygon fill="black" stroke="black" points="606.86,-216.95 610.36,-226.95 613.86,-216.95 606.86,-216.95"/>
</g>
<!-- PlaylistsModule -->
<g id="node7" class="node">
<title>PlaylistsModule</title>
<polygon fill="#8dd3c7" stroke="black" points="779.5,-263 776.5,-267 755.5,-267 752.5,-263 672.5,-263 672.5,-227 779.5,-227 779.5,-263"/>
<text text-anchor="middle" x="726" y="-240.8" font-family="Times,serif" font-size="14.00">PlaylistsModule</text>
</g>
<!-- AuthModule&#45;&gt;PlaylistsModule -->
<g id="edge22" class="edge">
<title>AuthModule&#45;&gt;PlaylistsModule</title>
<path fill="none" stroke="black" d="M1477.69,-187.14C1477.69,-193.46 1477.69,-199 1477.69,-199 1477.69,-199 764.85,-199 764.85,-199 764.85,-199 764.85,-216.82 764.85,-216.82"/>
<polygon fill="black" stroke="black" points="761.35,-216.82 764.85,-226.82 768.35,-216.82 761.35,-216.82"/>
</g>
<!-- TracksModule -->
<g id="node8" class="node">
<title>TracksModule</title>
<polygon fill="#8dd3c7" stroke="black" points="539.64,-263 536.64,-267 515.64,-267 512.64,-263 442.36,-263 442.36,-227 539.64,-227 539.64,-263"/>
<text text-anchor="middle" x="491" y="-240.8" font-family="Times,serif" font-size="14.00">TracksModule</text>
</g>
<!-- AuthModule&#45;&gt;TracksModule -->
<g id="edge28" class="edge">
<title>AuthModule&#45;&gt;TracksModule</title>
<path fill="none" stroke="black" d="M1468.71,-187.17C1468.71,-189.45 1468.71,-191 1468.71,-191 1468.71,-191 535.35,-191 535.35,-191 535.35,-191 535.35,-216.72 535.35,-216.72"/>
<polygon fill="black" stroke="black" points="531.85,-216.72 535.35,-226.72 538.85,-216.72 531.85,-216.72"/>
</g>
<!-- AppModule -->
<g id="node10" class="node">
<title>AppModule</title>
<polygon fill="#8dd3c7" stroke="black" points="767.66,-339 764.66,-343 743.66,-343 740.66,-339 684.34,-339 684.34,-303 767.66,-303 767.66,-339"/>
<text text-anchor="middle" x="726" y="-316.8" font-family="Times,serif" font-size="14.00">AppModule</text>
</g>
<!-- AuthModule&#45;&gt;AppModule -->
<g id="edge7" class="edge">
<title>AuthModule&#45;&gt;AppModule</title>
<path fill="none" stroke="black" d="M1504.61,-187.07C1504.61,-229.51 1504.61,-332 1504.61,-332 1504.61,-332 777.86,-332 777.86,-332"/>
<polygon fill="black" stroke="black" points="777.86,-328.5 767.86,-332 777.86,-335.5 777.86,-328.5"/>
</g>
<!-- AuthService  -->
<g id="node13" class="node">
<title>AuthService </title>
<polygon fill="#fb8072" stroke="black" points="1308.98,-263 1219.02,-263 1219.02,-227 1308.98,-227 1308.98,-263"/>
<text text-anchor="middle" x="1264" y="-240.8" font-family="Times,serif" font-size="14.00">AuthService </text>
</g>
<!-- AuthModule&#45;&gt;AuthService  -->
<g id="edge18" class="edge">
<title>AuthModule&#45;&gt;AuthService </title>
<path fill="none" stroke="black" stroke-dasharray="5,2" d="M1495.63,-187.28C1495.63,-202.95 1495.63,-223 1495.63,-223 1495.63,-223 1304.28,-223 1304.28,-223 1304.28,-223 1304.28,-223.38 1304.28,-223.38"/>
<polygon fill="black" stroke="black" points="1300.78,-216.83 1304.28,-226.83 1307.78,-216.83 1300.78,-216.83"/>
</g>
<!-- TokenService  -->
<g id="node14" class="node">
<title>TokenService </title>
<polygon fill="#fb8072" stroke="black" points="1423.75,-263 1326.25,-263 1326.25,-227 1423.75,-227 1423.75,-263"/>
<text text-anchor="middle" x="1375" y="-240.8" font-family="Times,serif" font-size="14.00">TokenService </text>
</g>
<!-- AuthModule&#45;&gt;TokenService  -->
<g id="edge19" class="edge">
<title>AuthModule&#45;&gt;TokenService </title>
<path fill="none" stroke="black" stroke-dasharray="5,2" d="M1500.12,-187.03C1500.12,-207.77 1500.12,-239 1500.12,-239 1500.12,-239 1433.73,-239 1433.73,-239"/>
<polygon fill="black" stroke="black" points="1433.73,-235.5 1423.73,-239 1433.73,-242.5 1433.73,-235.5"/>
</g>
<!-- PrismaModule -->
<g id="node2" class="node">
<title>PrismaModule</title>
<polygon fill="#8dd3c7" stroke="black" points="1562.43,-122 1559.43,-126 1538.43,-126 1535.43,-122 1463.57,-122 1463.57,-86 1562.43,-86 1562.43,-122"/>
<text text-anchor="middle" x="1513" y="-99.8" font-family="Times,serif" font-size="14.00">PrismaModule</text>
</g>
<!-- PrismaModule&#45;&gt;AuthModule -->
<g id="edge16" class="edge">
<title>PrismaModule&#45;&gt;AuthModule</title>
<path fill="none" stroke="black" d="M1508,-122.11C1508,-122.11 1508,-140.99 1508,-140.99"/>
<polygon fill="black" stroke="black" points="1504.5,-140.99 1508,-150.99 1511.5,-140.99 1504.5,-140.99"/>
</g>
<!-- PrismaModule&#45;&gt;AlbumsModule -->
<g id="edge2" class="edge">
<title>PrismaModule&#45;&gt;AlbumsModule</title>
<path fill="none" stroke="black" d="M1557,-122.14C1557,-122.14 1557,-216.93 1557,-216.93"/>
<polygon fill="black" stroke="black" points="1553.5,-216.92 1557,-226.93 1560.5,-216.93 1553.5,-216.92"/>
</g>
<!-- PrismaModule&#45;&gt;ArtistsModule -->
<g id="edge13" class="edge">
<title>PrismaModule&#45;&gt;ArtistsModule</title>
<path fill="none" stroke="black" d="M1463.65,-95C1268.87,-95 564.1,-95 564.1,-95 564.1,-95 564.1,-216.91 564.1,-216.91"/>
<polygon fill="black" stroke="black" points="560.6,-216.91 564.1,-226.91 567.6,-216.91 560.6,-216.91"/>
</g>
<!-- PrismaModule&#45;&gt;PlaylistsModule -->
<g id="edge23" class="edge">
<title>PrismaModule&#45;&gt;PlaylistsModule</title>
<path fill="none" stroke="black" d="M1463.62,-104C1290.81,-104 723.63,-104 723.63,-104 723.63,-104 723.63,-216.86 723.63,-216.86"/>
<polygon fill="black" stroke="black" points="720.13,-216.86 723.63,-226.86 727.13,-216.86 720.13,-216.86"/>
</g>
<!-- PrismaModule&#45;&gt;TracksModule -->
<g id="edge29" class="edge">
<title>PrismaModule&#45;&gt;TracksModule</title>
<path fill="none" stroke="black" d="M1463.62,-91C1264.46,-91 530.87,-91 530.87,-91 530.87,-91 530.87,-216.73 530.87,-216.73"/>
<polygon fill="black" stroke="black" points="527.37,-216.73 530.87,-226.73 534.37,-216.73 527.37,-216.73"/>
</g>
<!-- UsersModule -->
<g id="node9" class="node">
<title>UsersModule</title>
<polygon fill="#8dd3c7" stroke="black" points="888.92,-263 885.92,-267 864.92,-267 861.92,-263 797.08,-263 797.08,-227 888.92,-227 888.92,-263"/>
<text text-anchor="middle" x="843" y="-240.8" font-family="Times,serif" font-size="14.00">UsersModule</text>
</g>
<!-- PrismaModule&#45;&gt;UsersModule -->
<g id="edge33" class="edge">
<title>PrismaModule&#45;&gt;UsersModule</title>
<path fill="none" stroke="black" d="M1463.62,-109C1310.25,-109 852.38,-109 852.38,-109 852.38,-109 852.38,-216.94 852.38,-216.94"/>
<polygon fill="black" stroke="black" points="848.88,-216.94 852.38,-226.94 855.88,-216.94 848.88,-216.94"/>
</g>
<!-- PrismaModule&#45;&gt;AppModule -->
<g id="edge9" class="edge">
<title>PrismaModule&#45;&gt;AppModule</title>
<path fill="none" stroke="black" d="M1463.41,-100C1449.15,-100 1437.38,-100 1437.38,-100 1437.38,-100 1437.38,-318 1437.38,-318 1437.38,-318 777.84,-318 777.84,-318"/>
<polygon fill="black" stroke="black" points="777.84,-314.5 767.84,-318 777.84,-321.5 777.84,-314.5"/>
</g>
<!-- PrismaService  -->
<g id="node19" class="node">
<title>PrismaService </title>
<polygon fill="#fb8072" stroke="black" points="1424.36,-187 1323.64,-187 1323.64,-151 1424.36,-151 1424.36,-187"/>
<text text-anchor="middle" x="1374" y="-164.8" font-family="Times,serif" font-size="14.00">PrismaService </text>
</g>
<!-- PrismaModule&#45;&gt;PrismaService  -->
<g id="edge26" class="edge">
<title>PrismaModule&#45;&gt;PrismaService </title>
<path fill="none" stroke="black" stroke-dasharray="5,2" d="M1463.6,-118C1423.65,-118 1374,-118 1374,-118 1374,-118 1374,-140.88 1374,-140.88"/>
<polygon fill="black" stroke="black" points="1370.5,-140.88 1374,-150.88 1377.5,-140.88 1370.5,-140.88"/>
</g>
<!-- AlbumsService  -->
<g id="node4" class="node">
<title>AlbumsService </title>
<polygon fill="#fb8072" stroke="black" points="1614.81,-339 1509.19,-339 1509.19,-303 1614.81,-303 1614.81,-339"/>
<text text-anchor="middle" x="1562" y="-316.8" font-family="Times,serif" font-size="14.00">AlbumsService </text>
</g>
<!-- AlbumsModule&#45;&gt;AlbumsService  -->
<g id="edge3" class="edge">
<title>AlbumsModule&#45;&gt;AlbumsService </title>
<path fill="none" stroke="black" stroke-dasharray="5,2" d="M1562,-263.01C1562,-263.01 1562,-292.85 1562,-292.85"/>
<polygon fill="black" stroke="black" points="1558.5,-292.85 1562,-302.85 1565.5,-292.85 1558.5,-292.85"/>
</g>
<!-- AlbumsModule&#45;&gt;AppModule -->
<g id="edge5" class="edge">
<title>AlbumsModule&#45;&gt;AppModule</title>
<path fill="none" stroke="black" d="M1509.88,-251C1480.88,-251 1450.58,-251 1450.58,-251 1450.58,-251 1450.58,-325 1450.58,-325 1450.58,-325 777.82,-325 777.82,-325"/>
<polygon fill="black" stroke="black" points="777.82,-321.5 767.82,-325 777.82,-328.5 777.82,-321.5"/>
</g>
<!-- AlbumsService -->
<g id="node5" class="node">
<title>AlbumsService</title>
<ellipse fill="#fdb462" stroke="black" cx="1661" cy="-169" rx="70.64" ry="18"/>
<text text-anchor="middle" x="1661" y="-164.8" font-family="Times,serif" font-size="14.00">AlbumsService</text>
</g>
<!-- AlbumsService&#45;&gt;AlbumsModule -->
<g id="edge4" class="edge">
<title>AlbumsService&#45;&gt;AlbumsModule</title>
<path fill="none" stroke="black" d="M1602.18,-179.25C1602.18,-179.25 1602.18,-216.77 1602.18,-216.77"/>
<polygon fill="black" stroke="black" points="1598.68,-216.77 1602.18,-226.77 1605.68,-216.77 1598.68,-216.77"/>
</g>
<!-- ArtistsModule&#45;&gt;AppModule -->
<g id="edge6" class="edge">
<title>ArtistsModule&#45;&gt;AppModule</title>
<path fill="none" stroke="black" d="M606,-263.01C606,-285.49 606,-321 606,-321 606,-321 674.03,-321 674.03,-321"/>
<polygon fill="black" stroke="black" points="674.03,-324.5 684.03,-321 674.03,-317.5 674.03,-324.5"/>
</g>
<!-- ArtistsService  -->
<g id="node11" class="node">
<title>ArtistsService </title>
<polygon fill="#fb8072" stroke="black" points="526.31,-187 427.69,-187 427.69,-151 526.31,-151 526.31,-187"/>
<text text-anchor="middle" x="477" y="-164.8" font-family="Times,serif" font-size="14.00">ArtistsService </text>
</g>
<!-- ArtistsModule&#45;&gt;ArtistsService  -->
<g id="edge14" class="edge">
<title>ArtistsModule&#45;&gt;ArtistsService </title>
<path fill="none" stroke="black" stroke-dasharray="5,2" d="M561.92,-226.99C561.92,-204.51 561.92,-169 561.92,-169 561.92,-169 536.4,-169 536.4,-169"/>
<polygon fill="black" stroke="black" points="536.4,-165.5 526.4,-169 536.4,-172.5 536.4,-165.5"/>
</g>
<!-- PlaylistsModule&#45;&gt;AppModule -->
<g id="edge8" class="edge">
<title>PlaylistsModule&#45;&gt;AppModule</title>
<path fill="none" stroke="black" d="M726,-263.01C726,-263.01 726,-292.85 726,-292.85"/>
<polygon fill="black" stroke="black" points="722.5,-292.85 726,-302.85 729.5,-292.85 722.5,-292.85"/>
</g>
<!-- PlaylistsService  -->
<g id="node17" class="node">
<title>PlaylistsService </title>
<polygon fill="#fb8072" stroke="black" points="844.43,-187 735.57,-187 735.57,-151 844.43,-151 844.43,-187"/>
<text text-anchor="middle" x="790" y="-164.8" font-family="Times,serif" font-size="14.00">PlaylistsService </text>
</g>
<!-- PlaylistsModule&#45;&gt;PlaylistsService  -->
<g id="edge24" class="edge">
<title>PlaylistsModule&#45;&gt;PlaylistsService </title>
<path fill="none" stroke="black" stroke-dasharray="5,2" d="M750.19,-226.99C750.19,-226.99 750.19,-197.15 750.19,-197.15"/>
<polygon fill="black" stroke="black" points="753.69,-197.15 750.19,-187.15 746.69,-197.15 753.69,-197.15"/>
</g>
<!-- TracksModule&#45;&gt;AppModule -->
<g id="edge10" class="edge">
<title>TracksModule&#45;&gt;AppModule</title>
<path fill="none" stroke="black" d="M507.27,-263.03C507.27,-287.98 507.27,-330 507.27,-330 507.27,-330 674.09,-330 674.09,-330"/>
<polygon fill="black" stroke="black" points="674.09,-333.5 684.09,-330 674.09,-326.5 674.09,-333.5"/>
</g>
<!-- AudioGateway  -->
<g id="node21" class="node">
<title>AudioGateway </title>
<polygon fill="#fb8072" stroke="black" points="284.25,-339 179.75,-339 179.75,-303 284.25,-303 284.25,-339"/>
<text text-anchor="middle" x="232" y="-316.8" font-family="Times,serif" font-size="14.00">AudioGateway </text>
</g>
<!-- TracksModule&#45;&gt;AudioGateway  -->
<g id="edge30" class="edge">
<title>TracksModule&#45;&gt;AudioGateway </title>
<path fill="none" stroke="black" stroke-dasharray="5,2" d="M442.18,-251C379.35,-251 278.19,-251 278.19,-251 278.19,-251 278.19,-292.97 278.19,-292.97"/>
<polygon fill="black" stroke="black" points="274.69,-292.97 278.19,-302.97 281.69,-292.97 274.69,-292.97"/>
</g>
<!-- TracksService  -->
<g id="node22" class="node">
<title>TracksService </title>
<polygon fill="#fb8072" stroke="black" points="401.57,-339 302.43,-339 302.43,-303 401.57,-303 401.57,-339"/>
<text text-anchor="middle" x="352" y="-316.8" font-family="Times,serif" font-size="14.00">TracksService </text>
</g>
<!-- TracksModule&#45;&gt;TracksService  -->
<g id="edge31" class="edge">
<title>TracksModule&#45;&gt;TracksService </title>
<path fill="none" stroke="black" stroke-dasharray="5,2" d="M474.73,-263.31C474.73,-283.15 474.73,-312 474.73,-312 474.73,-312 411.92,-312 411.92,-312"/>
<polygon fill="black" stroke="black" points="411.92,-308.5 401.92,-312 411.92,-315.5 411.92,-308.5"/>
</g>
<!-- UsersModule&#45;&gt;AuthModule -->
<g id="edge17" class="edge">
<title>UsersModule&#45;&gt;AuthModule</title>
<path fill="none" stroke="black" d="M868.2,-226.81C868.2,-218.72 868.2,-211 868.2,-211 868.2,-211 1482.17,-211 1482.17,-211 1482.17,-211 1482.17,-197.06 1482.17,-197.06"/>
<polygon fill="black" stroke="black" points="1485.67,-197.06 1482.17,-187.06 1478.67,-197.06 1485.67,-197.06"/>
</g>
<!-- UsersModule&#45;&gt;AppModule -->
<g id="edge11" class="edge">
<title>UsersModule&#45;&gt;AppModule</title>
<path fill="none" stroke="black" d="M843,-263.03C843,-282.58 843,-311 843,-311 843,-311 777.91,-311 777.91,-311"/>
<polygon fill="black" stroke="black" points="777.91,-307.5 767.91,-311 777.91,-314.5 777.91,-307.5"/>
</g>
<!-- UsersService  -->
<g id="node24" class="node">
<title>UsersService </title>
<polygon fill="#fb8072" stroke="black" points="1125.85,-187 1032.15,-187 1032.15,-151 1125.85,-151 1125.85,-187"/>
<text text-anchor="middle" x="1079" y="-164.8" font-family="Times,serif" font-size="14.00">UsersService </text>
</g>
<!-- UsersModule&#45;&gt;UsersService  -->
<g id="edge34" class="edge">
<title>UsersModule&#45;&gt;UsersService </title>
<path fill="none" stroke="black" stroke-dasharray="5,2" d="M860.29,-226.89C860.29,-217.1 860.29,-207 860.29,-207 860.29,-207 1037.32,-207 1037.32,-207 1037.32,-207 1037.32,-197.11 1037.32,-197.11"/>
<polygon fill="black" stroke="black" points="1040.82,-197.11 1037.32,-187.11 1033.82,-197.11 1040.82,-197.11"/>
</g>
<!-- ArtistsService -->
<g id="node12" class="node">
<title>ArtistsService</title>
<ellipse fill="#fdb462" stroke="black" cx="338" cy="-169" rx="65.98" ry="18"/>
<text text-anchor="middle" x="338" y="-164.8" font-family="Times,serif" font-size="14.00">ArtistsService</text>
</g>
<!-- ArtistsService&#45;&gt;ArtistsModule -->
<g id="edge15" class="edge">
<title>ArtistsService&#45;&gt;ArtistsModule</title>
<path fill="none" stroke="black" d="M352,-186.8C352,-195.02 352,-203 352,-203 352,-203 559.74,-203 559.74,-203 559.74,-203 559.74,-216.94 559.74,-216.94"/>
<polygon fill="black" stroke="black" points="556.24,-216.94 559.74,-226.94 563.24,-216.94 556.24,-216.94"/>
</g>
<!-- AuthService -->
<g id="node15" class="node">
<title>AuthService</title>
<ellipse fill="#fdb462" stroke="black" cx="988" cy="-245" rx="59.11" ry="18"/>
<text text-anchor="middle" x="988" y="-240.8" font-family="Times,serif" font-size="14.00">AuthService</text>
</g>
<!-- AuthService&#45;&gt;AuthModule -->
<g id="edge20" class="edge">
<title>AuthService&#45;&gt;AuthModule</title>
<path fill="none" stroke="black" d="M1042.31,-237.74C1042.31,-228.86 1042.31,-215 1042.31,-215 1042.31,-215 1486.66,-215 1486.66,-215 1486.66,-215 1486.66,-197.18 1486.66,-197.18"/>
<polygon fill="black" stroke="black" points="1490.16,-197.18 1486.66,-187.18 1483.16,-197.18 1490.16,-197.18"/>
</g>
<!-- TokenService -->
<g id="node16" class="node">
<title>TokenService</title>
<ellipse fill="#fdb462" stroke="black" cx="1130" cy="-245" rx="64.83" ry="18"/>
<text text-anchor="middle" x="1130" y="-240.8" font-family="Times,serif" font-size="14.00">TokenService</text>
</g>
<!-- TokenService&#45;&gt;AuthModule -->
<g id="edge21" class="edge">
<title>TokenService&#45;&gt;AuthModule</title>
<path fill="none" stroke="black" d="M1180.43,-233.52C1180.43,-226.56 1180.43,-219 1180.43,-219 1180.43,-219 1491.15,-219 1491.15,-219 1491.15,-219 1491.15,-197.05 1491.15,-197.05"/>
<polygon fill="black" stroke="black" points="1494.65,-197.05 1491.15,-187.05 1487.65,-197.05 1494.65,-197.05"/>
</g>
<!-- PlaylistsService -->
<g id="node18" class="node">
<title>PlaylistsService</title>
<ellipse fill="#fdb462" stroke="black" cx="639" cy="-169" rx="72.94" ry="18"/>
<text text-anchor="middle" x="639" y="-164.8" font-family="Times,serif" font-size="14.00">PlaylistsService</text>
</g>
<!-- PlaylistsService&#45;&gt;PlaylistsModule -->
<g id="edge25" class="edge">
<title>PlaylistsService&#45;&gt;PlaylistsModule</title>
<path fill="none" stroke="black" d="M692.11,-181.55C692.11,-181.55 692.11,-216.74 692.11,-216.74"/>
<polygon fill="black" stroke="black" points="688.61,-216.74 692.11,-226.74 695.61,-216.74 688.61,-216.74"/>
</g>
<!-- PrismaService -->
<g id="node20" class="node">
<title>PrismaService</title>
<ellipse fill="#fdb462" stroke="black" cx="1233" cy="-169" rx="66.63" ry="18"/>
<text text-anchor="middle" x="1233" y="-164.8" font-family="Times,serif" font-size="14.00">PrismaService</text>
</g>
<!-- PrismaService&#45;&gt;PrismaModule -->
<g id="edge27" class="edge">
<title>PrismaService&#45;&gt;PrismaModule</title>
<path fill="none" stroke="black" d="M1233,-150.97C1233,-134.6 1233,-113 1233,-113 1233,-113 1453.59,-113 1453.59,-113"/>
<polygon fill="black" stroke="black" points="1453.59,-116.5 1463.59,-113 1453.59,-109.5 1453.59,-116.5"/>
</g>
<!-- TracksService -->
<g id="node23" class="node">
<title>TracksService</title>
<ellipse fill="#fdb462" stroke="black" cx="90" cy="-321" rx="66.03" ry="18"/>
<text text-anchor="middle" x="90" y="-316.8" font-family="Times,serif" font-size="14.00">TracksService</text>
</g>
<!-- TracksService&#45;&gt;TracksModule -->
<g id="edge32" class="edge">
<title>TracksService&#45;&gt;TracksModule</title>
<path fill="none" stroke="black" d="M90,-302.8C90,-278.64 90,-239 90,-239 90,-239 432.23,-239 432.23,-239"/>
<polygon fill="black" stroke="black" points="432.23,-242.5 442.23,-239 432.23,-235.5 432.23,-242.5"/>
</g>
<!-- UsersService -->
<g id="node25" class="node">
<title>UsersService</title>
<ellipse fill="#fdb462" stroke="black" cx="946" cy="-169" rx="61.95" ry="18"/>
<text text-anchor="middle" x="946" y="-164.8" font-family="Times,serif" font-size="14.00">UsersService</text>
</g>
<!-- UsersService&#45;&gt;UsersModule -->
<g id="edge35" class="edge">
<title>UsersService&#45;&gt;UsersModule</title>
<path fill="none" stroke="black" d="M883.86,-169C879.11,-169 876.11,-169 876.11,-169 876.11,-169 876.11,-216.99 876.11,-216.99"/>
<polygon fill="black" stroke="black" points="872.61,-216.99 876.11,-226.99 879.61,-216.99 872.61,-216.99"/>
</g>
</g>
</svg>
